<svg width="190" height="58" viewBox="0 0 190 58" fill="none" xmlns="http://www.w3.org/2000/svg">
<path d="M66.2038 31.4165C66.2038 31.7554 66.2038 32.0933 66.2038 32.4301C66.0885 32.6642 66.2199 32.9173 66.1245 33.1536C65.6446 34.4129 66.6713 35.1828 67.4884 35.9475C69.4041 37.7299 71.8245 38.6022 74.6775 38.5737C75.1624 38.5674 75.6472 38.5737 76.1332 38.5737C76.3812 38.5737 76.5139 38.6085 76.5126 38.8595C76.5027 40.9689 76.5027 43.0759 76.5126 45.1803C76.5126 45.3966 76.4159 45.4546 76.1766 45.4546C74.4097 45.4482 72.6304 45.56 70.8784 45.4271C67.9396 45.2048 65.1421 44.2539 62.8325 42.6923C62.4313 42.4189 62.0491 42.1259 61.688 41.8148C61.4772 41.6376 61.3297 41.5965 61.0891 41.7926C59.5306 43.0623 57.6738 44.0371 55.6408 44.653C54.0291 45.1632 52.3252 45.4309 50.6055 45.444C41.0381 45.444 31.4712 45.4468 21.9047 45.4524C21.4571 45.4524 21.4087 45.3132 21.4087 44.9937C21.4224 43.0203 21.4298 41.0459 21.4087 39.0715C21.4087 38.6496 21.5563 38.561 22.0287 38.5621C31.0248 38.574 40.0201 38.5765 49.0146 38.5695C51.8888 38.5695 54.1281 37.5359 55.7103 35.5108C58.6861 31.6791 55.988 26.3212 50.6774 25.4711C49.4734 25.2781 48.2583 25.3593 47.0493 25.3583C40.2024 25.3583 33.3567 25.3889 26.5111 25.3509C24.9066 25.3425 23.2872 25.3994 21.6865 25.217C19.4546 24.9638 17.4075 24.3194 15.4645 23.366C14.0907 22.6751 12.8541 21.8037 11.8005 20.7841C10.5065 19.5475 9.49444 18.1169 8.81597 16.5652C8.2394 15.2806 8.01249 13.9485 7.78931 12.607C7.76947 12.4825 7.80295 12.4055 7.96538 12.4023H8.32868C11.0677 12.4023 13.8055 12.4023 16.5445 12.4023C16.9065 12.4023 17.0863 12.4087 17.1644 12.8179C17.4094 14.187 18.1463 15.4581 19.274 16.457C20.4017 17.4559 21.865 18.1336 23.4633 18.3973C23.6691 18.4171 23.8764 18.4228 24.0833 18.4141C24.2829 18.4901 24.4937 18.4511 24.7032 18.4511C31.8568 18.4511 39.0096 18.4511 46.1615 18.4511C46.3686 18.4511 46.5769 18.4236 46.7815 18.4785C47.9582 18.4785 49.1374 18.4785 50.3116 18.4954C54.0909 18.5344 57.4511 19.5437 60.3786 21.5962C62.561 23.1147 64.2319 25.0976 65.2218 27.3432C65.6897 28.4487 65.9937 29.5995 66.127 30.7689C66.2162 30.9798 66.0997 31.2087 66.2038 31.4165Z" fill="#1976D2"/>
<path d="M8.06081 30.7942C8.13024 33.4721 9.53881 35.5551 12.0286 37.134C13.6963 38.1887 15.5959 38.6813 17.6802 38.6507C18.2865 38.6422 18.8929 38.6444 19.4992 38.6412C19.5885 38.7097 19.5662 38.8026 19.5662 38.889C19.5662 41.0195 19.5662 43.1504 19.5662 45.2816C19.5857 45.3689 19.5649 45.4592 19.5079 45.5337H14.4427C14.2741 45.4503 14.077 45.5337 13.9046 45.4693C10.0025 45.1097 6.73904 43.6763 4.0459 41.2611C2.55456 39.9237 1.43991 38.3156 0.786119 36.5582C0.355862 35.4265 0.0421592 34.2705 0.0421592 33.0703C0.00401508 32.9414 -0.00648595 32.8078 0.0111608 32.6758C0.0111608 30.3555 0.0198389 28.0256 0 25.7C0 25.3266 0.123994 25.2391 0.549292 25.2423C2.88615 25.2591 5.22384 25.2591 7.56236 25.2423C7.92814 25.2423 8.02733 25.334 8.02361 25.6399C8.00749 27.1998 8.01493 28.7597 8.02361 30.3196C8.01865 30.4746 7.97649 30.6392 8.06081 30.7942Z" fill="#1976D2"/>
<path d="M97.1786 25.2841C96.2623 25.2841 95.3435 25.2609 94.4272 25.2841C94.0155 25.2936 93.868 25.2103 93.7576 24.8359C93.2616 23.1367 92.6727 21.4608 92.1457 19.7627C91.4551 17.569 90.7892 15.3699 90.111 13.1814C89.8345 13.2806 89.987 13.4852 89.987 13.6297C89.9758 17.3612 89.9795 21.0927 89.9746 24.8243C89.9746 24.9761 90.0564 25.1459 89.9002 25.283C89.3633 25.283 88.8264 25.2683 88.2883 25.2746C88.0477 25.2746 87.9312 25.2092 87.956 24.9951C87.9634 24.9223 87.956 24.8485 87.956 24.7747C87.956 20.1962 87.9622 15.6178 87.946 11.0393C87.946 10.6354 88.07 10.512 88.5449 10.5288C89.3224 10.5636 90.1035 10.551 90.8822 10.5288C91.1848 10.5215 91.3075 10.6195 91.3782 10.8558C92.5569 14.6422 93.7431 18.4275 94.9368 22.2118C94.9851 22.3647 94.9777 22.5651 95.2542 22.7138V22.2255C95.2542 18.5013 95.2641 14.7761 95.2406 11.052C95.2406 10.6079 95.3906 10.4961 95.8767 10.5352C96.3087 10.5536 96.7416 10.5536 97.1736 10.5352C97.3237 10.6406 97.253 10.783 97.253 10.9064C97.253 15.5766 97.253 20.2468 97.253 24.9171C97.2579 25.0341 97.3286 25.1786 97.1786 25.2841Z" fill="#1976D2"/>
<path d="M64.9328 25.9571C64.3649 25.1882 63.921 24.4932 63.3693 23.854C62.0269 22.2911 60.3087 20.9892 58.329 20.035C58.1777 19.9439 58.0161 19.8658 57.8466 19.8019C57.0952 19.5983 56.9241 19.1807 56.9464 18.5246C57.0097 16.5977 56.9774 14.6676 56.9601 12.7385C56.9601 12.4221 57.0407 12.3103 57.4424 12.3167C59.7809 12.3335 62.1194 12.3272 64.4592 12.3219C64.7766 12.3219 64.97 12.3525 64.9688 12.6985C64.958 17.027 64.9551 21.3561 64.9601 25.686C64.9601 25.7346 64.9502 25.7852 64.9328 25.9571Z" fill="#1976D2"/>
<path d="M171.488 21.1954V14.4453C171.58 14.2987 171.488 14.1289 171.565 13.9802C171.612 13.3144 171.799 12.6612 172.115 12.0511C172.702 10.9363 173.834 10.5819 175.123 10.4216C175.297 10.3604 175.495 10.4406 175.663 10.3594C176.283 10.3711 176.901 10.4258 177.51 10.5229C179.308 10.8614 180.001 11.8338 180.208 13.206C180.274 13.5829 180.309 13.9631 180.315 14.344C180.315 14.6225 180.202 14.6995 179.892 14.6868C179.358 14.6657 178.715 14.8239 178.312 14.6246C177.909 14.4252 178.203 13.8241 178.073 13.4022C177.825 12.608 177.309 12.1661 176.397 12.1112C176.144 12.0501 175.876 12.0501 175.623 12.1112C174.516 12.1798 173.799 12.8896 173.763 13.9559C173.661 14.0983 173.763 14.266 173.682 14.4105C173.625 16.7118 173.625 19.0132 173.682 21.3146C173.774 21.4865 173.65 21.6826 173.766 21.8514C173.766 22.9209 174.477 23.7351 175.625 23.7034C175.913 23.7667 176.214 23.7667 176.501 23.7034C176.621 23.7087 176.742 23.7087 176.863 23.7034C178.077 23.6054 178.172 23.5199 178.167 22.5C178.167 21.3968 178.149 20.2936 178.139 19.1904C177.504 19.0902 176.864 19.1492 176.228 19.1535C175.877 19.1535 175.766 19.0607 175.799 18.7748C175.852 18.3266 175.718 17.871 175.875 17.4259C177.208 17.4259 178.541 17.4396 179.872 17.4259C180.207 17.4259 180.321 17.5008 180.319 17.7961C180.305 20.0036 180.309 22.211 180.319 24.4175C180.332 24.5097 180.309 24.6032 180.251 24.6824C180.194 24.7616 180.107 24.8218 180.004 24.8531C179.113 25.2074 178.164 25.3192 177.203 25.3952C177.028 25.4574 176.831 25.3794 176.658 25.4574H175.666C175.462 25.3667 175.231 25.4637 175.024 25.392C174.12 25.3087 173.268 25.1442 172.622 24.5198C172.097 24.0135 171.878 23.4123 171.701 22.7795C171.601 22.4083 171.624 22.0307 171.567 21.6584C171.488 21.5107 171.575 21.343 171.488 21.1954Z" fill="#1976D2"/>
<path d="M116.018 13.7993C116.058 13.2076 116.163 12.6391 116.468 12.0865C116.671 11.7024 116.977 11.3638 117.36 11.0971C117.743 10.8305 118.194 10.6431 118.677 10.5498C119.799 10.308 120.976 10.3116 122.096 10.5603C123.336 10.8261 124.08 11.6667 124.261 12.8627C124.341 13.3901 124.332 13.9174 124.364 14.4448C124.385 14.7928 124.23 14.8667 123.859 14.8519C123.342 14.8297 122.823 14.8519 122.305 14.8519C122.109 14.5682 122.328 14.2433 122.181 13.9543C122.156 13.5219 122.112 13.0853 121.851 12.7077C121.603 12.3565 121.2 12.1803 120.735 12.1118C120.486 12.049 120.22 12.049 119.971 12.1118C119.103 12.1339 118.595 12.4577 118.337 13.1559C118.145 13.6738 118.176 14.2106 118.256 14.7274C118.355 15.3676 118.892 15.761 119.496 16.1144C120.488 16.6976 121.537 17.1954 122.525 17.7829C123.754 18.5128 124.463 19.4704 124.561 20.7361C124.633 21.679 124.545 22.6166 124.099 23.4931C123.521 24.6226 122.455 25.2207 121.037 25.3915C120.861 25.4611 120.665 25.381 120.487 25.4569H119.713C119.509 25.3662 119.275 25.4653 119.068 25.3884C116.969 25.2249 116.093 24.1449 115.845 22.4995C115.734 21.7855 115.802 21.0757 115.747 20.3648C116.471 20.2309 117.197 20.2783 117.923 20.3406C118.073 20.8152 117.893 21.3067 118.022 21.7823C118.007 22.3814 118.104 22.9509 118.65 23.3876C118.784 23.5025 118.946 23.5906 119.124 23.6453C119.303 23.7001 119.493 23.7201 119.682 23.704C119.963 23.7705 120.26 23.7705 120.541 23.704C121.657 23.6376 122.312 23.03 122.41 21.9553C122.482 21.6177 122.482 21.2719 122.41 20.9344C122.296 20.1729 121.747 19.6888 121.037 19.2616C120.045 18.6646 118.962 18.1963 118.003 17.5445C116.887 16.7862 116.124 15.9161 116.038 14.6768C115.98 14.3868 115.974 14.091 116.018 13.7993Z" fill="#1976D2"/>
<path d="M81.2963 25.0225C81.2963 32.1375 81.3 39.2521 81.3074 46.3665C81.3074 46.7715 81.1834 46.8938 80.7123 46.8717C79.8443 46.839 79.8443 46.8632 79.8443 46.126C79.8443 31.9993 79.8402 17.873 79.8319 3.74706C79.8319 3.28616 79.9646 3.14694 80.5077 3.17541C81.2988 3.21655 81.3012 3.18491 81.3012 3.85464V25.0225H81.2963Z" fill="#1976D2"/>
<path d="M66.3042 19.7231C66.3835 18.276 67.8913 16.6454 70.0698 16.348C70.2397 16.2721 70.4418 16.3649 70.608 16.2773C72.3823 16.3364 73.8318 16.8817 74.8064 18.2148C76.0104 19.8612 75.4846 22.1847 73.6408 23.328C71.7648 24.4882 69.4065 24.4239 67.6892 23.0844C66.8931 22.4632 66.3538 21.6584 66.3054 20.6881C66.2523 20.368 66.2519 20.0432 66.3042 19.7231Z" fill="#1976D2"/>
<path d="M170.099 18.5645C168.735 18.5645 167.371 18.5645 166.007 18.5487C165.739 18.5487 165.648 18.6172 165.65 18.8492C165.668 20.406 165.673 21.9627 165.68 23.5195C166.12 23.6144 166.569 23.5574 167.013 23.5617C168.063 23.5711 169.121 23.5616 170.166 23.569C170.324 23.569 170.512 23.492 170.64 23.645C170.632 24.0415 170.598 24.4392 170.626 24.8336C170.652 25.1933 170.49 25.2808 170.088 25.2787C167.927 25.2682 165.766 25.2787 163.604 25.2787C163.458 25.1732 163.527 25.0298 163.527 24.9053C163.527 20.2365 163.527 15.567 163.527 10.8968C163.527 10.7723 163.458 10.6289 163.604 10.5234H170.409C170.588 11.0381 170.464 11.5644 170.477 12.0844C170.477 12.3112 170.229 12.2373 170.074 12.2384C168.779 12.2384 167.483 12.2384 166.187 12.2384C166.018 12.2384 165.84 12.1972 165.68 12.2816C165.639 13.7849 165.639 15.2879 165.68 16.7905C166.311 16.8959 166.95 16.8211 167.585 16.8327C168.309 16.8464 169.035 16.8464 169.759 16.8327C170.061 16.8263 170.217 16.8812 170.18 17.1691C170.121 17.6384 170.268 18.112 170.099 18.5645Z" fill="#1976D2"/>
<path d="M114.055 27.6999C114.228 28.7082 114.619 29.6732 114.9 30.6604C115.474 32.6802 116.078 34.6936 116.673 36.7102C116.704 36.7931 116.743 36.8741 116.787 36.9528C116.719 36.9612 116.866 36.9528 116.822 36.9928C116.807 37.0066 116.856 37.0466 116.861 37.0403C116.964 36.8905 116.921 36.7239 116.921 36.5678C116.921 33.7623 116.921 30.9568 116.921 28.1513C116.921 27.9931 116.871 27.8275 116.969 27.6756C117.45 27.6005 117.944 27.603 118.424 27.683C118.424 31.366 118.415 35.049 118.432 38.732C118.432 39.136 118.316 39.2763 117.832 39.2425C117.313 39.217 116.793 39.2153 116.273 39.2372C116.026 39.2425 115.902 39.1697 115.836 38.9599C114.975 36.0531 114.111 33.1467 113.244 30.2406C113.225 30.1542 113.212 30.0669 113.206 29.9791C113.274 29.9717 113.124 29.9791 113.171 29.9401C113.184 29.9285 113.134 29.8863 113.129 29.8915C113.025 30.0413 113.07 30.208 113.07 30.3662C113.07 33.1787 113.067 35.9912 113.062 38.8038C113.062 38.9514 113.161 39.1265 112.974 39.2531H111.603C111.424 39.1476 111.515 38.982 111.515 38.847C111.515 35.261 111.515 31.6698 111.5 28.0806C111.5 27.7009 111.636 27.5965 112.054 27.6303C112.721 27.6819 113.396 27.5543 114.055 27.6999Z" fill="#1976D2"/>
<path d="M104.982 18.5665C103.683 18.5665 102.378 18.5665 101.086 18.5486C100.714 18.5433 100.618 18.6361 100.621 18.9452C100.637 20.8732 100.621 22.8022 100.639 24.7302C100.639 25.1426 100.531 25.3356 100.011 25.2786C99.5147 25.2259 98.8588 25.4632 98.5736 25.1816C98.3256 24.9401 98.488 24.3969 98.488 23.9877C98.488 19.6898 98.488 15.3908 98.4756 11.0929C98.4756 10.671 98.5575 10.5202 99.1105 10.5276C101.137 10.5582 103.163 10.535 105.186 10.5276C105.367 11.0433 105.242 11.5696 105.254 12.0896C105.254 12.3174 105.006 12.2415 104.85 12.2425C103.621 12.2425 102.393 12.2425 101.165 12.2425C100.995 12.2425 100.818 12.2025 100.658 12.2858C100.606 13.7891 100.606 15.292 100.658 16.7946C101.465 16.9001 102.276 16.8178 103.084 16.8379C103.621 16.8505 104.157 16.8379 104.696 16.8379C104.839 16.8379 105.06 16.7894 105.051 16.9919C105.03 17.5245 105.16 18.0508 104.982 18.5665Z" fill="#1976D2"/>
<path d="M186.424 25.2862H184.408C184.24 25.1523 184.33 24.9803 184.33 24.8295C184.321 23.0365 184.33 21.2499 184.322 19.46C184.322 19.2997 184.357 19.1362 184.284 18.9812C183.705 17.6073 183.13 16.2337 182.559 14.8605C182.009 13.5379 181.466 12.2121 180.908 10.8916C180.803 10.6438 180.849 10.5352 181.179 10.5404C181.716 10.5489 182.254 10.5615 182.791 10.5404C183.138 10.5246 183.257 10.6459 183.349 10.9159C183.991 12.7585 184.653 14.5968 185.312 16.4362C185.359 16.568 185.376 16.7168 185.56 16.8412C185.907 15.8646 186.245 14.9206 186.579 13.9756C186.944 12.942 187.306 11.9073 187.665 10.8716C187.749 10.6301 187.913 10.5267 188.226 10.5404C188.792 10.5647 189.363 10.5468 190 10.5468L188.707 13.6771C188.013 15.3541 187.321 17.0314 186.631 18.7091C186.597 18.8056 186.571 18.9039 186.553 19.0033C186.464 19.1584 186.508 19.3198 186.508 19.4822C186.508 21.2646 186.508 23.0481 186.501 24.8306C186.501 24.9772 186.586 25.148 186.424 25.2862Z" fill="#1976D2"/>
<path d="M124.678 12.1675C124.705 11.8164 124.709 11.4643 124.69 11.1128C124.642 10.6709 124.783 10.5222 125.349 10.5275C128.2 10.5528 131.052 10.5338 133.894 10.5275C134.081 11.0411 133.943 11.5664 133.969 12.0853C133.979 12.2867 133.76 12.2424 133.617 12.2424C132.718 12.2424 131.819 12.2424 130.921 12.2424C130.752 12.2424 130.575 12.2013 130.414 12.2857C130.405 12.4618 130.389 12.6379 130.389 12.813C130.389 16.7998 130.379 20.7876 130.399 24.7744C130.399 25.1963 130.254 25.3017 129.791 25.2743C129.309 25.2437 128.823 25.2743 128.338 25.2743C128.186 25.1351 128.265 24.9642 128.265 24.8113C128.259 20.7915 128.259 16.772 128.265 12.7529C128.265 12.5936 128.308 12.4291 128.218 12.2751C127.214 12.1834 126.207 12.2625 125.202 12.2298C125.026 12.2371 124.829 12.33 124.678 12.1675Z" fill="#1976D2"/>
<path d="M153.72 10.5312H162.816C162.989 11.0491 162.867 11.5765 162.881 12.0985C162.881 12.2979 162.664 12.2472 162.523 12.2483C161.655 12.2483 160.787 12.2483 159.919 12.2483C159.354 12.2483 159.353 12.2483 159.353 12.7198C159.353 16.755 159.353 20.79 159.353 24.8246C159.353 24.9775 159.437 25.1494 159.274 25.2844H157.258C157.092 25.1494 157.18 24.9775 157.18 24.8256C157.174 20.7903 157.174 16.755 157.18 12.7198C157.18 12.2494 157.18 12.2483 156.614 12.2483C155.764 12.2483 154.915 12.2346 154.067 12.2546C153.715 12.2631 153.607 12.1565 153.641 11.8749C153.692 11.4299 153.546 10.9732 153.72 10.5312Z" fill="#1976D2"/>
<path d="M139.552 36.1509C139.552 34.3051 139.552 32.4598 139.552 30.6147C139.656 30.4734 139.552 30.3047 139.631 30.1612C139.651 29.6969 139.774 29.2399 139.993 28.8144C140.272 28.2248 140.818 27.8535 141.553 27.6753C142.363 27.4625 143.226 27.4476 144.046 27.632C145.346 27.9485 145.734 28.4705 145.986 29.5484C146.085 29.9794 146.122 30.4188 146.098 30.8573C145.645 30.9628 145.184 30.8816 144.734 30.9058C144.514 30.9185 144.498 30.8004 144.486 30.6506C144.476 30.4492 144.534 30.2435 144.444 30.0473C144.38 29.4852 144.086 29.0749 143.414 28.9135C143.097 28.8481 142.767 28.8481 142.45 28.9135C141.633 28.9515 141.334 29.6666 141.21 30.272C141.192 30.4318 141.189 30.5926 141.199 30.7529C141.102 31.0693 141.158 31.3931 141.156 31.7127C141.148 33.0015 141.156 34.2904 141.156 35.5792C141.156 35.7227 141.118 35.8724 141.2 36.0116C141.176 36.4202 141.237 36.8292 141.382 37.2193C141.442 37.4268 141.576 37.6134 141.766 37.7539C141.955 37.8943 142.191 37.9816 142.441 38.004C143.123 38.0873 143.805 38.0462 144.432 37.7392C144.556 36.7763 144.457 35.8102 144.483 34.8451C144.483 34.7028 144.534 34.5519 144.432 34.4169L142.786 34.3948C142.68 33.9589 142.68 33.5091 142.786 33.0732C143.757 33.0732 144.727 33.0838 145.697 33.0659C146.024 33.0659 146.104 33.1534 146.103 33.4192C146.089 35.113 146.089 36.8069 146.103 38.5007C146.117 38.6018 146.088 38.7038 146.021 38.7881C145.954 38.8724 145.854 38.9333 145.738 38.9595C144.261 39.4352 142.754 39.5259 141.235 39.1599C140.338 38.949 140.018 38.2708 139.775 37.5937C139.674 37.3079 139.68 36.9936 139.636 36.693C139.543 36.5179 139.66 36.3207 139.552 36.1509Z" fill="#1976D2"/>
<path d="M110.484 39.2549C110.416 39.2486 110.347 39.2402 110.279 39.2381C109.867 39.2275 109.324 39.352 109.078 39.1748C108.787 38.9638 108.988 38.4871 108.983 38.1275C108.969 36.8618 108.969 35.5994 108.983 34.34C108.983 34.0416 108.903 33.9182 108.528 33.9403C107.599 33.9814 106.668 33.8992 105.738 33.9846C105.637 34.1196 105.687 34.2704 105.686 34.4128C105.686 35.8894 105.686 37.366 105.68 38.8489C105.68 38.9839 105.764 39.1421 105.595 39.2549C105.303 39.2337 105.009 39.2299 104.716 39.2433C104.233 39.2929 104.079 39.1737 104.083 38.7308C104.11 35.7913 104.097 32.8519 104.096 29.9124C104.096 29.1741 104.085 28.4432 104.08 27.7091C104.54 27.5435 105.022 27.6532 105.492 27.648C105.789 27.648 105.678 27.8874 105.678 28.0255C105.687 29.3745 105.678 30.7235 105.686 32.0714C105.686 32.2306 105.641 32.3941 105.732 32.5481C106.805 32.6176 107.883 32.6158 108.955 32.5428L108.969 27.6996C109.422 27.5667 109.889 27.6691 110.348 27.6406C110.377 27.6359 110.407 27.6371 110.436 27.6442C110.465 27.6514 110.491 27.6641 110.512 27.6815C110.534 27.6989 110.551 27.7204 110.561 27.7443C110.571 27.7682 110.574 27.7937 110.57 27.8188C110.57 27.9074 110.57 27.996 110.57 28.0836C110.57 31.6695 110.57 35.2573 110.57 38.8468C110.57 38.9828 110.659 39.1421 110.484 39.2549Z" fill="#1976D2"/>
<path d="M99.7824 28.9063C99.0273 29.0117 98.6727 29.4262 98.6516 30.212C98.5759 30.3523 98.6119 30.502 98.6107 30.6465C98.6107 32.4972 98.6107 34.3485 98.6107 36.2006C98.6107 36.3451 98.5759 36.4948 98.6516 36.6351C98.6764 37.7953 99.4836 38.2994 100.688 37.9166C101.285 37.7278 101.407 37.2658 101.472 36.8323C101.526 36.478 101.655 36.1194 101.587 35.7513C101.543 35.5182 101.672 35.4433 101.939 35.4528C102.335 35.4676 102.733 35.4528 103.131 35.4528C103.233 35.8336 103.193 36.2154 103.155 36.5972C103.038 37.4588 102.907 38.3079 102.039 38.9175C101.772 39.1015 101.452 39.2203 101.112 39.2613C99.9287 39.4216 98.7483 39.4881 97.8183 38.6623C97.3102 38.2021 97.0273 37.5945 97.0273 36.9631C96.9876 34.7293 97.0099 32.4944 97.0099 30.2595C97.1079 30.115 97.0099 29.943 97.0893 29.7996C97.2691 28.786 97.6844 27.917 99.0025 27.6364C99.7544 27.4616 100.547 27.4547 101.303 27.6164C102.43 27.8716 102.984 28.5276 103.162 29.8007C103.19 30.212 103.263 30.6233 103.12 31.0304C102.759 31.0304 102.396 31.0041 102.038 31.0304C101.658 31.0568 101.542 30.925 101.594 30.6275C101.652 30.3111 101.552 29.9947 101.492 29.6846C101.419 29.305 101.181 28.9907 100.68 28.9052C100.385 28.845 100.077 28.8453 99.7824 28.9063Z" fill="#1976D2"/>
<path d="M95.9585 32.6429C95.9585 32.6577 95.9585 32.6724 95.9585 32.6872C95.9138 33.0922 96.173 33.6227 95.8494 33.8706C95.5257 34.1184 94.9231 33.9296 94.4408 33.9402C93.9584 33.9507 93.4377 33.9476 92.9355 33.9402C92.7322 33.9402 92.6082 33.9782 92.6131 34.1817C92.6404 35.402 92.5635 36.6223 92.654 37.8415C93.6596 37.947 94.6677 37.8573 95.6745 37.889C95.8741 37.8964 96.0849 37.8352 96.2747 37.9396C96.2747 38.2318 96.2486 38.5271 96.2747 38.8182C96.3081 39.1588 96.1333 39.2401 95.7638 39.2401C94.2139 39.2337 92.664 39.2464 91.1128 39.2527C90.9417 39.1388 91.0272 38.9795 91.0272 38.8445C91.0272 35.2586 91.0272 31.6726 91.0124 28.0803C91.0124 27.7037 91.145 27.6183 91.5641 27.6257C92.9281 27.6468 94.292 27.632 95.6646 27.6352C95.832 27.6352 96.0105 27.5919 96.1693 27.6837C96.1184 28.1056 96.3875 28.6445 96.0527 28.9093C95.7477 29.1508 95.1252 28.9683 94.6441 28.9778C94.0899 28.9884 93.5344 28.9873 92.9814 28.9778C92.726 28.9778 92.6094 29.0306 92.6094 29.2721C92.628 30.3605 92.6305 31.45 92.6392 32.5417C93.5617 32.6471 94.4891 32.5564 95.4141 32.5891C95.5939 32.5923 95.7911 32.5258 95.9585 32.6429Z" fill="#1976D2"/>
<path d="M84.5524 10.5312H86.5685C86.7198 10.6367 86.6479 10.7791 86.6479 10.9025C86.6479 15.5727 86.6479 20.2429 86.6479 24.9131C86.6479 25.0365 86.7198 25.181 86.5685 25.2844H84.5524C84.4023 25.1789 84.4743 25.0365 84.4743 24.9131C84.4693 20.2429 84.4693 15.5727 84.4743 10.9025C84.4743 10.7791 84.4073 10.6346 84.5524 10.5312Z" fill="#1976D2"/>
<path d="M149.008 34.2162C148.171 32.066 147.334 29.9151 146.496 27.7635C146.496 27.6981 146.533 27.6412 146.607 27.6422C147.164 27.657 147.723 27.5768 148.278 27.6834L149.878 32.535L149.989 32.5424C150.529 30.9252 151.071 29.3108 151.613 27.6992C152.161 27.5684 152.714 27.6201 153.267 27.676C152.449 29.7643 151.632 31.853 150.816 33.942C150.715 34.1904 150.664 34.4513 150.664 34.714C150.674 36.0967 150.664 37.4794 150.677 38.8621C150.677 39.1511 150.588 39.2566 150.242 39.2376C149.896 39.2186 149.516 39.2429 149.154 39.2492C148.973 39.1438 149.065 38.9782 149.065 38.8432C149.056 37.4436 149.065 36.044 149.057 34.6444C149.061 34.5041 149.106 34.3575 149.008 34.2162Z" fill="#1976D2"/>
<path d="M90.551 27.688C90.551 27.9928 90.5287 28.2997 90.551 28.6045C90.5734 28.9094 90.4271 28.98 90.1022 28.9853C89.3855 28.9948 88.6663 28.921 87.9534 29.0254C87.8505 29.1762 87.9026 29.3418 87.9026 29.5C87.9026 32.6001 87.8997 35.6999 87.8939 38.7993C87.8939 38.9491 87.9906 39.122 87.8108 39.2518C87.5006 39.2316 87.1892 39.2277 86.8784 39.2402C86.4332 39.2802 86.2968 39.1716 86.3006 38.7676C86.3241 35.7037 86.3142 32.6398 86.3117 29.5759C86.3117 28.9115 86.3985 28.9853 85.626 28.98C85.1065 28.98 84.5857 28.9674 84.0674 28.98C83.7674 28.9895 83.6707 28.8967 83.6855 28.6478C83.7066 28.3251 83.6855 28.0002 83.6855 27.6764C83.7922 27.6047 83.9174 27.6289 84.0352 27.6289H90.2026C90.3229 27.6332 90.4506 27.6047 90.551 27.688Z" fill="#1976D2"/>
<path d="M131.737 37.9738C131.727 38.1046 131.71 38.2354 131.708 38.3661C131.708 39.2331 131.708 39.231 130.658 39.2342C129.403 39.2342 128.147 39.2458 126.892 39.251C126.724 39.1371 126.808 38.9779 126.808 38.8418C126.803 35.2671 126.803 31.6924 126.808 28.1176C126.808 27.6325 126.808 27.6177 127.408 27.6377C127.742 27.6483 128.091 27.5418 128.413 27.7052C128.408 31.0409 128.404 34.3773 128.401 37.7143C128.407 37.7579 128.419 37.8007 128.436 37.842C129.362 37.9474 130.296 37.8546 131.221 37.8926C131.39 37.8989 131.597 37.7998 131.737 37.9738Z" fill="#1976D2"/>
<path d="M153.472 48.3073V50.5401C153.734 50.4927 153.915 50.3355 154.166 50.2881C155.224 50.0898 156.026 50.5359 156.059 51.4556C156.108 52.6031 156.069 53.7528 156.079 54.9024C156.079 55.1207 155.977 55.1756 155.739 55.1756C155.501 55.1756 155.359 55.1344 155.367 54.8866C155.38 53.8846 155.367 52.8826 155.367 51.8817C155.376 51.7208 155.36 51.5595 155.322 51.4018C155.149 50.827 154.896 50.6825 154.224 50.7448C153.786 50.7859 153.494 51.0812 153.48 51.5653C153.457 52.6548 153.448 53.7454 153.463 54.8349C153.463 55.1671 153.279 55.1893 152.984 55.1713C152.625 55.1502 152.757 54.9193 152.756 54.7727C152.749 52.6084 152.749 50.4435 152.756 48.2778C152.998 48.2272 153.242 48.1723 153.472 48.3073Z" fill="#1976D2"/>
<path d="M168.291 50.3164H168.843C169.003 50.4335 168.922 50.5896 168.924 50.7256C168.931 51.6886 168.924 52.6526 168.924 53.6155C168.924 53.76 168.885 53.9077 168.967 54.0469C168.986 54.5394 169.24 54.801 169.721 54.82C169.972 54.8315 170.218 54.7617 170.411 54.6247C170.603 54.4877 170.728 54.2936 170.759 54.0817C170.957 52.9722 170.808 51.8563 170.855 50.7436C170.864 50.5505 170.772 50.3217 171.184 50.3291C171.596 50.3364 171.57 50.54 171.57 50.771C171.57 52.1105 171.57 53.4499 171.562 54.7894C171.562 54.9202 171.663 55.1301 171.418 55.1564C171.235 55.1754 170.986 55.303 170.841 55.0383C170.717 54.8147 170.593 55.0383 170.493 55.0816C169.805 55.398 168.961 55.3326 168.544 54.9328C168.296 54.6955 168.278 54.4055 168.229 54.1133C168.159 52.8825 168.212 51.6517 168.201 50.4219C168.204 50.3575 168.258 50.3459 168.291 50.3164Z" fill="#1976D2"/>
<path d="M140.363 55.1686H139.75C139.643 54.3786 139.734 53.5865 139.701 52.7945C139.683 52.4 139.753 52.0024 139.657 51.61C139.604 50.9772 139.347 50.7367 138.742 50.7388C138.137 50.741 137.806 51.0447 137.781 51.6649C137.752 52.3715 137.77 53.0792 137.768 53.7859C137.768 54.1392 137.752 54.4936 137.768 54.8469C137.783 55.1 137.674 55.1749 137.381 55.1749C137.088 55.1749 137.047 55.0515 137.049 54.8458C137.055 53.4463 137.07 52.0467 137.041 50.6471C137.032 50.1978 137.393 50.3644 137.635 50.3128C137.806 50.3338 137.605 50.5796 137.843 50.5617C138.912 49.8318 140.171 50.2758 140.39 51.4603C140.427 52.6985 140.489 53.9346 140.363 55.1686Z" fill="#1976D2"/>
<path d="M117.738 50.3159C117.938 50.3886 118.219 50.2104 118.358 50.5015C118.409 50.607 118.582 50.4572 118.695 50.4118C119.46 50.107 120.225 50.2083 120.679 50.6797C120.968 50.9835 121 51.359 121.006 51.7207C121.026 52.7512 121.006 53.7816 121.015 54.811C121.015 55.0219 121.023 55.1749 120.677 55.1812C120.331 55.1875 120.305 55.0346 120.305 54.8015C120.313 53.8438 120.305 52.8872 120.305 51.9306C120.31 51.7841 120.299 51.6374 120.27 51.4929C120.127 50.9118 119.811 50.6977 119.19 50.743C118.694 50.7789 118.467 51.0447 118.427 51.6279C118.313 52.6362 118.411 53.6466 118.375 54.6559C118.375 54.8279 118.431 55.0072 118.321 55.1727H117.711C117.654 55.0983 117.633 55.0079 117.652 54.9207C117.652 53.4785 117.652 52.0371 117.652 50.5964C117.654 50.4983 117.598 50.3876 117.738 50.3159Z" fill="#1976D2"/>
<path d="M179.213 50.3167H179.764C179.881 50.3726 179.847 50.4696 179.847 50.5529C179.847 52.0232 179.847 53.4931 179.847 54.9626C179.857 55.0356 179.839 55.1092 179.798 55.1736C179.583 55.1124 179.272 55.3159 179.152 54.9816C179.107 54.8561 178.989 54.951 178.904 54.9974C178.695 55.1274 178.454 55.2151 178.2 55.2537C177.07 55.3908 176.472 54.9131 176.49 53.9237C176.507 52.9344 176.527 51.9293 176.48 50.9337C176.457 50.4728 176.577 50.246 177.153 50.3177C177.325 50.4295 177.237 50.5867 177.239 50.7206C177.247 51.7753 177.239 52.8205 177.246 53.87C177.246 54.0123 177.203 54.1621 177.293 54.2982C177.316 54.6146 177.541 54.777 177.877 54.8118C178.062 54.8393 178.252 54.8222 178.426 54.7626C178.599 54.7029 178.75 54.6031 178.86 54.4743C178.984 54.3266 179.108 54.1579 179.071 53.9469C179.179 52.8922 179.085 51.8238 179.123 50.7628C179.138 50.6151 179.033 50.4443 179.213 50.3167Z" fill="#1976D2"/>
<path d="M105.982 50.3164C106.183 50.3649 106.431 50.2658 106.579 50.4904C106.659 50.6149 106.734 50.464 106.809 50.4345C107.738 50.0812 108.867 50.1487 109.19 51.2002C109.237 52.5249 109.264 53.8496 109.176 55.1743H108.564C108.44 55.013 108.507 54.8315 108.502 54.6596C108.469 53.5575 108.554 52.4532 108.455 51.3521C108.249 50.8416 107.985 50.6876 107.412 50.7456C106.955 50.791 106.711 51.0536 106.668 51.5409C106.557 52.5798 106.652 53.6218 106.616 54.6607C106.61 54.8326 106.68 55.013 106.554 55.1743H105.941C105.84 54.783 105.9 54.3865 105.897 53.992C105.887 52.9046 105.897 51.8172 105.897 50.7298C105.902 50.5917 105.822 50.4356 105.982 50.3164Z" fill="#1976D2"/>
<path d="M165.964 50.3119C166.274 50.4079 166.852 50.1253 166.793 50.7338C166.766 50.7528 166.74 50.7813 166.71 50.7844C165.911 50.8614 165.911 50.8614 165.911 51.5417C165.911 52.6091 165.911 53.6764 165.911 54.7448C165.911 54.8851 165.969 55.038 165.849 55.1667H165.236C165.127 54.2776 165.224 53.3864 165.187 52.4962C165.163 51.9436 165.26 51.3888 165.132 50.8382C164.87 50.7148 164.567 50.8646 164.304 50.7486C164.252 50.5988 164.18 50.448 164.343 50.313C164.609 50.3214 164.875 50.3615 165.136 50.2845C165.276 49.7972 165.12 49.2984 165.219 48.8079C165.262 48.6857 165.333 48.5722 165.43 48.4744C165.526 48.3765 165.644 48.2962 165.778 48.2385C165.912 48.1808 166.058 48.1468 166.207 48.1387C166.357 48.1305 166.507 48.1483 166.648 48.1909C166.806 48.2437 166.781 48.3407 166.787 48.4388C166.797 48.6023 166.676 48.6212 166.522 48.6265C166.293 48.635 166.026 48.5864 165.963 48.8775C165.88 49.3531 165.88 49.8365 165.964 50.3119Z" fill="#1976D2"/>
<path d="M174.191 50.841C174.191 51.9984 174.188 53.1554 174.182 54.3121C174.182 54.734 174.44 54.8879 174.916 54.8004C175.351 54.8479 175.143 55.0746 175.092 55.2571C174.834 55.2571 174.576 55.2666 174.319 55.2571C173.772 55.2413 173.475 54.9892 173.469 54.5188C173.453 53.2911 173.444 52.0624 173.432 50.8347C173.291 50.7524 173.131 50.7957 172.979 50.7904C172.518 50.7746 172.502 50.7524 172.656 50.3095C172.795 50.3095 172.934 50.3095 173.07 50.3242C173.356 50.3527 173.493 50.2641 173.458 50.0078C173.44 49.9058 173.444 49.8018 173.469 49.7009C173.531 49.4963 173.747 49.4647 173.952 49.4372C174.156 49.4098 174.151 49.5427 174.166 49.6608C174.248 50.3443 174.249 50.3443 175.08 50.3116C175.244 50.7482 175.219 50.7788 174.734 50.7925C174.55 50.802 174.363 50.7535 174.191 50.841Z" fill="#1976D2"/>
<path d="M150.466 50.3024C150.619 50.3206 150.774 50.3284 150.928 50.3256C151.3 50.2961 151.438 50.4311 151.398 50.7349C151.286 50.8403 151.138 50.7918 151.007 50.7918C150.332 50.7918 150.406 50.7517 150.415 51.3255C150.43 52.2631 150.358 53.2008 150.456 54.1363C150.39 54.5961 150.547 54.8841 151.174 54.8218C151.32 54.8081 151.396 54.8756 151.391 55.0043C151.391 55.1098 151.391 55.1962 151.24 55.2479C150.522 55.4947 149.816 55.1741 149.722 54.5497C149.644 53.495 149.705 52.4319 149.689 51.374C149.68 50.8161 149.689 50.8161 149.041 50.795C148.956 50.795 148.868 50.795 148.806 50.7317C148.751 50.4153 148.88 50.2676 149.279 50.3246C149.399 50.3285 149.518 50.319 149.634 50.2961C149.765 50.0767 149.623 49.832 149.718 49.6095L150.263 49.4102C150.527 49.4597 150.387 49.638 150.409 49.7582C150.447 49.9375 150.357 50.1274 150.466 50.3024Z" fill="#1976D2"/>
<path d="M131.783 50.3164H132.332C132.47 50.3818 132.396 50.4946 132.419 50.5864C132.435 50.6539 132.372 50.7741 132.551 50.7436C132.828 50.3955 133.288 50.4166 133.696 50.3407C133.84 50.3143 133.929 50.3818 133.923 50.5126C133.917 50.6434 133.982 50.7931 133.743 50.8153C133.607 50.8279 133.466 50.8216 133.333 50.8427C132.742 50.9366 132.502 51.1813 132.465 51.7107C132.358 52.6758 132.447 53.644 132.415 54.609C132.408 54.7978 132.466 54.9908 132.368 55.1733H131.755C131.745 55.1617 131.729 55.149 131.728 55.1364C131.651 53.5543 131.703 51.9617 131.703 50.3744C131.705 50.3523 131.755 50.3343 131.783 50.3164Z" fill="#1976D2"/>
<path d="M182.076 55.1733H181.466C181.361 55.0066 181.416 54.8263 181.415 54.6533C181.41 53.3455 181.41 52.037 181.415 50.7277C181.415 50.5906 181.333 50.4335 181.497 50.3164H182.046C182.257 50.3649 181.985 50.656 182.285 50.6602C182.558 50.4335 182.92 50.4155 183.265 50.3544C183.466 50.3196 183.609 50.3491 183.637 50.5463C183.664 50.7436 183.538 50.8068 183.333 50.8195C183.162 50.8201 182.993 50.8382 182.827 50.8733C182.424 50.9893 182.141 51.1992 182.184 51.6116C182.088 52.6431 182.169 53.6756 182.138 54.7082C182.13 54.8622 182.193 55.0298 182.076 55.1733Z" fill="#1976D2"/>
<path d="M135.59 52.7704C135.59 53.4454 135.59 54.1215 135.59 54.7965C135.59 55.0222 135.59 55.1888 135.218 55.1814C134.886 55.1751 134.869 55.0359 134.87 54.8207C134.876 53.4264 134.876 52.0317 134.87 50.6367C134.87 50.4258 134.918 50.3203 135.209 50.3203C135.499 50.3203 135.594 50.41 135.589 50.6557C135.581 51.3613 135.59 52.0658 135.59 52.7704Z" fill="#1976D2"/>
<path d="M115.554 50.3185C116.119 50.2436 116.238 50.4767 116.225 50.9176C116.193 52.1463 116.214 53.3761 116.214 54.609C116.214 55.1765 116.214 55.1765 115.53 55.1754C115.521 55.1638 115.504 55.1512 115.502 55.1385C115.427 53.5565 115.478 51.9649 115.479 50.3776C115.479 50.3554 115.53 50.3365 115.554 50.3185Z" fill="#1976D2"/>
<path d="M98.979 54.3789H99.341C99.9003 54.3789 99.961 54.4622 99.8953 54.9537C99.8693 55.1288 99.7787 55.1763 99.5965 55.172C99.3894 55.172 99.1823 55.172 98.9765 55.172C98.9002 54.9116 98.9011 54.6391 98.979 54.3789Z" fill="#1976D2"/>
<path d="M94.6045 55.1743C94.4837 55.1648 94.3621 55.1648 94.2412 55.1743C93.6981 55.2629 93.6609 54.9971 93.6795 54.647C93.6919 54.4255 93.8035 54.3696 94.0317 54.3801C94.2214 54.3896 94.4111 54.3801 94.602 54.3801C94.6927 54.6391 94.6936 54.9149 94.6045 55.1743Z" fill="#1976D2"/>
<path d="M97.2121 55.1712C97.0916 55.1627 96.9705 55.1627 96.85 55.1712C96.3788 55.2408 96.2437 55.0657 96.2871 54.685C96.3106 54.474 96.3577 54.3527 96.6404 54.3686C96.8289 54.3823 97.0199 54.3686 97.2096 54.3686C97.2915 54.6315 97.2924 54.9079 97.2121 55.1712Z" fill="#1976D2"/>
<path d="M116.242 48.2917C116.2 48.49 116.321 48.7136 116.162 48.8866C116.028 49.0332 115.809 48.9688 115.626 48.9625C115.378 48.9551 115.458 48.7832 115.444 48.663C115.43 48.5427 115.428 48.4309 115.42 48.3149C115.688 48.1652 115.965 48.2168 116.242 48.2917Z" fill="#1976D2"/>
<path d="M135.561 48.9776C134.864 48.9565 134.864 48.9565 134.864 48.2773C135.7 48.156 135.806 48.2625 135.561 48.9776Z" fill="#1976D2"/>
<path d="M95.9585 32.6428C95.0087 32.6365 94.0601 32.6333 93.1066 32.6186C92.9479 32.6186 92.7582 32.6956 92.6329 32.5384C93.5654 32.5384 94.4928 32.5384 95.429 32.5384C95.6125 32.5416 95.8208 32.473 95.9585 32.6428Z" fill="#1976D2"/>
<path fill-rule="evenodd" clip-rule="evenodd" d="M82.6504 47.3812V47.4245C82.6504 47.491 82.6491 47.5575 82.6479 47.6238C82.6445 47.8078 82.6412 47.9905 82.664 48.1681C82.6875 48.4961 82.8624 48.7144 83.3075 48.6891C83.4688 48.6827 83.6312 48.6849 83.7932 48.687C83.8741 48.688 83.9549 48.6891 84.0354 48.6891C84.1029 48.6822 84.1712 48.6932 84.2311 48.7206C84.291 48.748 84.3396 48.7904 84.3701 48.842C84.814 49.4906 84.793 49.7459 84.2151 50.2732C83.8246 50.6318 83.8209 50.9609 84.2151 51.3142C84.3806 51.4638 84.5516 51.6073 84.7242 51.7521C84.7986 51.8145 84.8733 51.8772 84.9479 51.9407C85.5592 52.4681 85.8085 52.4828 86.3875 51.9407C86.7285 51.6222 87.0248 51.6549 87.4725 51.7604C88.1333 51.9133 88.3045 52.2265 88.204 52.7402C88.2003 52.7841 88.2003 52.8281 88.204 52.872C88.1916 53.2106 88.3999 53.3899 88.7831 53.3994C89.3311 53.411 89.8928 53.4088 90.4471 53.3994C90.8637 53.392 91.0844 53.1947 91.0844 52.8404V52.2223C91.0757 52.1652 91.0889 52.1071 91.1219 52.0568C91.155 52.0065 91.2061 51.9665 91.2679 51.9428C92.24 51.483 92.2933 51.4745 93.067 52.1348C93.4254 52.4417 93.7478 52.3573 94.059 52.1253C94.2818 51.9591 94.4894 51.7773 94.6972 51.5953C94.7797 51.5231 94.8621 51.4509 94.9455 51.3796C95.5035 50.9039 95.5308 50.6687 94.9195 50.2194C94.4967 49.9073 94.3987 49.6288 94.7199 49.2417C94.7901 49.1573 94.8402 49.062 94.8674 48.9612C94.9232 48.7524 95.0596 48.6954 95.3076 48.688C96.6715 48.6458 96.6715 48.6406 96.6715 47.473V47.3844C96.7139 46.1825 96.417 46.1975 95.417 46.248C95.3929 46.2492 95.3685 46.2504 95.3436 46.2517C95.0408 46.2672 94.9574 46.1387 94.8374 45.9537L94.8302 45.9426C94.431 45.3615 94.4533 44.8974 95.1538 44.4819C95.4651 44.2973 95.4378 43.9935 95.1625 43.751C94.7881 43.424 94.4136 43.1013 94.0206 42.7849C93.692 42.5244 93.3423 42.5349 93.0125 42.7986C92.8581 42.9171 92.7112 43.0424 92.5723 43.174C92.4111 43.3323 92.2673 43.3154 92.0317 43.2595C91.3162 43.0897 90.9157 42.8049 91.0683 42.1056C91.1551 41.7101 90.8128 41.5256 90.3813 41.4992C90.1449 41.4849 89.909 41.4878 89.6742 41.4906C89.5791 41.4917 89.4841 41.4929 89.3894 41.4929C88.2251 41.4918 88.2015 41.5076 88.2015 42.4895C88.2028 42.7785 88.0899 42.9104 87.7738 43.0475C87.155 43.3185 86.6715 43.3671 86.2114 42.826C86.0019 42.5792 85.62 42.4917 85.305 42.7342C84.8686 43.0707 84.4557 43.4303 84.0589 43.7995C83.8407 44.002 83.7837 44.3036 84.0589 44.4618C84.8054 44.8932 84.8227 45.3752 84.3838 45.9848C84.3801 45.99 84.3765 45.9951 84.3729 46.0001C84.2607 46.1574 84.1951 46.2496 83.9548 46.2496C83.2553 46.2348 82.9285 46.1993 82.777 46.3454C82.6366 46.4809 82.6468 46.7724 82.6504 47.3812ZM90.7137 45.2497C90.3721 45.1329 90.0066 45.0755 89.6386 45.0809C89.2704 45.079 88.9054 45.1388 88.5645 45.2569C88.2235 45.375 87.9133 45.5492 87.6516 45.7694C87.3898 45.9896 87.1816 46.2515 87.039 46.5402C86.8963 46.8289 86.822 47.1387 86.8202 47.4519C86.8202 48.7586 88.1395 49.8745 89.6721 49.8619C90.4158 49.8538 91.1254 49.5949 91.6448 49.142C92.1642 48.6891 92.451 48.0793 92.4421 47.4466C92.4454 47.1335 92.3751 46.823 92.2351 46.5335C92.0951 46.2439 91.8884 45.9812 91.6271 45.7607C91.3658 45.5402 91.0552 45.3664 90.7137 45.2497Z" fill="#1976D2"/>
<path fill-rule="evenodd" clip-rule="evenodd" d="M139.458 10.5429L134.685 10.5312C134.575 10.6124 134.588 10.7143 134.601 10.8114C134.605 10.8418 134.608 10.8717 134.608 10.9004V24.9089C134.608 24.9388 134.604 24.9697 134.601 25.001C134.588 25.1 134.575 25.2021 134.685 25.2823C134.846 25.2823 135.008 25.2791 135.169 25.276C135.492 25.2696 135.815 25.2633 136.136 25.2823C136.59 25.3139 136.772 25.2148 136.747 24.7866C136.716 24.2322 136.723 23.6768 136.73 23.121C136.733 22.8828 136.736 22.6445 136.736 22.4061C136.741 21.5148 136.75 20.6241 136.758 19.7331C136.762 19.3758 136.765 19.0184 136.768 18.6609C137.421 18.5881 138.081 18.586 138.734 18.6546C139.465 18.7442 140.103 18.971 140.372 19.6133C140.68 20.3537 140.747 21.1268 140.698 21.9073C140.756 22.0454 140.749 22.1881 140.742 22.331C140.736 22.4629 140.729 22.595 140.775 22.7236L140.801 23.3279C140.853 23.402 140.85 23.4845 140.846 23.5674C140.844 23.6415 140.841 23.7159 140.878 23.7846C140.892 23.8947 140.907 24.0051 140.922 24.1154C140.951 24.3359 140.98 24.5564 141.011 24.775C141.059 25.103 141.168 25.3382 141.671 25.2855C141.988 25.2527 142.312 25.2611 142.635 25.2695C142.78 25.2733 142.926 25.277 143.071 25.277C143.309 25.2791 143.391 25.2538 143.326 25.0017C143.107 24.1453 142.936 23.2794 142.968 22.3966C142.909 22.2581 142.916 22.1154 142.923 21.9726C142.93 21.8414 142.936 21.7102 142.891 21.5824L142.866 20.2672C142.812 20.1951 142.815 20.113 142.819 20.0305C142.822 19.9562 142.825 19.8816 142.786 19.8137C142.606 18.7558 142.081 17.9437 140.654 17.7633C141.946 17.4047 142.734 16.7202 143.044 15.674C143.372 14.6225 143.349 13.5139 142.977 12.473C142.674 11.6419 142.072 11.0354 141.08 10.7591C140.556 10.6151 140.008 10.5421 139.458 10.5429ZM136.732 12.5373V14.5665C136.732 14.7919 136.734 15.0173 136.735 15.2426C136.738 15.6933 136.741 16.144 136.732 16.5947C136.726 16.8415 136.815 16.9333 137.113 16.9238C137.391 16.9142 137.67 16.9136 137.949 16.9131C138.346 16.9122 138.742 16.9114 139.135 16.8848C139.959 16.8299 140.642 16.5578 140.91 15.8143C141.169 15.0645 141.219 14.2736 141.056 13.5045C140.932 12.8653 140.463 12.4751 139.692 12.338C139.023 12.219 138.349 12.2193 137.675 12.2196C137.453 12.2197 137.23 12.2198 137.008 12.2156C136.729 12.2107 136.731 12.3513 136.732 12.5036C136.732 12.5148 136.732 12.526 136.732 12.5373Z" fill="#1976D2"/>
<path fill-rule="evenodd" clip-rule="evenodd" d="M114.782 13.9359C114.45 11.8286 113.806 10.8066 111.456 10.4237C111.356 10.3857 111.249 10.3902 111.143 10.3947C111.031 10.3995 110.919 10.4043 110.815 10.3594H110.04C109.95 10.3981 109.854 10.3962 109.759 10.3943C109.668 10.3925 109.577 10.3907 109.491 10.4248C108.388 10.5882 107.386 10.8825 106.804 11.7959C106.411 12.4139 106.185 13.0983 106.141 13.7998C106.104 13.8691 106.106 13.944 106.109 14.0193C106.111 14.1022 106.113 14.1855 106.064 14.2618V21.3778C106.114 21.4535 106.112 21.5361 106.109 21.6191C106.106 21.6934 106.104 21.7679 106.14 21.8377C106.161 21.9769 106.168 22.1172 106.176 22.2574C106.187 22.4772 106.198 22.6971 106.264 22.9135C106.507 23.7203 106.819 24.4913 107.707 24.9638C108.249 25.2517 108.869 25.3488 109.489 25.3962C109.57 25.4258 109.658 25.4239 109.747 25.4221C109.844 25.4201 109.942 25.418 110.033 25.4585C110.227 25.4457 110.422 25.4417 110.616 25.4378C110.952 25.4309 111.287 25.4241 111.623 25.372C113.061 25.1505 114.115 24.5483 114.53 23.3037C114.614 23.052 114.67 22.7942 114.727 22.5362C114.752 22.4213 114.777 22.3065 114.804 22.1921C114.85 22.0776 114.844 21.9589 114.838 21.8403C114.832 21.7129 114.825 21.5856 114.882 21.4633V14.884C114.827 14.76 114.833 14.6315 114.839 14.5032C114.845 14.3861 114.851 14.269 114.809 14.1552C114.807 14.1381 114.805 14.1211 114.803 14.1041C114.797 14.0477 114.79 13.9918 114.782 13.9359ZM112.717 21.1774V17.8636L112.705 17.8583C112.705 17.4868 112.708 17.1154 112.711 16.744C112.718 15.8498 112.725 14.9556 112.691 14.0614C112.667 13.4053 112.585 12.7124 111.816 12.3116C110.467 11.6071 108.792 12.1661 108.389 13.4549C108.298 13.7384 108.246 14.0302 108.235 14.324C108.169 16.6211 108.184 18.9183 108.225 21.2154C108.237 21.569 108.278 21.9215 108.349 22.2701C108.536 23.2383 109.143 23.695 110.314 23.7657C111.419 23.8332 112.177 23.3944 112.504 22.4842C112.651 22.0601 112.723 21.6196 112.717 21.1774Z" fill="#1976D2"/>
<path fill-rule="evenodd" clip-rule="evenodd" d="M143.976 23.9218C143.867 24.3704 143.757 24.8209 143.648 25.2747C143.82 25.2747 143.991 25.2746 144.159 25.2744C144.576 25.2739 144.981 25.2735 145.387 25.2758C145.629 25.2768 145.749 25.2167 145.795 24.9836C145.886 24.536 145.988 24.0899 146.09 23.6437C146.197 23.1731 146.305 22.7024 146.399 22.2298C146.444 22.0052 146.53 21.9282 146.788 21.9282H150.271C150.466 21.9271 150.568 21.9482 150.605 22.1591C150.674 22.5436 150.756 22.9265 150.839 23.3097C150.93 23.7339 151.022 24.1582 151.095 24.585C151.098 24.6074 151.102 24.6291 151.106 24.6501C151.209 25.2716 151.209 25.2716 151.99 25.2716C152.111 25.2716 152.233 25.269 152.355 25.2664C152.598 25.2612 152.841 25.2561 153.081 25.2716C153.467 25.3 153.532 25.1471 153.467 24.8782C153.317 24.2636 153.168 23.6494 153.02 23.0356C152.409 20.4931 151.799 17.9505 151.189 15.408C151.119 15.1149 151.048 14.8217 150.978 14.5285C150.691 13.3362 150.405 12.1431 150.13 10.9487C150.054 10.6207 149.889 10.5015 149.478 10.5268C148.873 10.5696 148.265 10.5696 147.66 10.5268C147.236 10.4952 147.103 10.6882 147.054 10.9487C146.903 11.7183 146.711 12.4811 146.519 13.2437C146.382 13.7896 146.245 14.3355 146.122 14.8838C145.88 15.9735 145.617 17.059 145.353 18.1446C145.135 19.0439 144.916 19.9433 144.71 20.845C144.477 21.869 144.228 22.89 143.976 23.9218ZM149.739 17.896C149.354 16.1382 148.969 14.3804 148.585 12.6225L148.508 12.6331C148.307 13.5556 148.106 14.4781 147.903 15.4006C147.816 15.7991 147.73 16.1976 147.644 16.5961C147.412 17.6691 147.18 18.7419 146.932 19.8124C146.845 20.1869 146.954 20.2828 147.4 20.2649C148.122 20.2349 148.846 20.2449 149.569 20.2549C149.659 20.2562 149.75 20.2574 149.84 20.2586C150.132 20.2628 150.273 20.2449 150.186 19.9284C150.062 19.472 149.968 19.0097 149.874 18.5472C149.831 18.33 149.787 18.1128 149.739 17.896Z" fill="#1976D2"/>
<path fill-rule="evenodd" clip-rule="evenodd" d="M86.0502 8.30491C86.0096 8.30284 85.9698 8.3002 85.9304 8.29759C85.8495 8.29223 85.7703 8.28698 85.6894 8.28698H85.6894C84.6268 8.28698 84.623 8.28698 84.628 7.36518C84.628 7.12352 84.6261 6.8818 84.6241 6.6401C84.6182 5.89651 84.6122 5.15306 84.6627 4.41201C84.7731 2.78883 85.8778 1.42721 87.9771 1.06334C88.1416 1.03534 88.305 0.997145 88.4648 0.959782L88.473 0.957868C88.9541 0.909877 89.4402 0.909877 89.9213 0.957868C90.8165 1.10236 91.6795 1.31436 92.4098 1.81007C93.2331 2.36906 93.5927 3.13899 93.7923 3.98275C93.8432 4.27295 93.8432 4.56795 93.7923 4.85815C93.336 6.87685 91.7576 7.86721 89.5034 8.23319C88.9153 8.27241 88.3268 8.26695 87.7381 8.26149H87.7381C87.3611 8.25799 86.984 8.25449 86.6069 8.26273C86.5491 8.2664 86.4904 8.2651 86.4312 8.26379C86.3038 8.26096 86.1747 8.25809 86.0502 8.30491ZM91.2058 4.508C91.1629 4.65131 91.1193 4.79452 91.0758 4.9377L91.0758 4.93772C90.9697 5.28665 90.8636 5.63535 90.7669 5.98458C90.7148 6.17759 90.6429 6.29572 90.3701 6.30099C90.0973 6.30627 90.0254 6.17127 89.9733 5.98458C89.844 5.48189 89.6626 4.98989 89.4315 4.51433V5.96982L89.4315 5.98399C89.4317 6.14709 89.4319 6.29238 89.1475 6.28623C88.878 6.2804 88.8799 6.13852 88.8819 5.99252V5.9925C88.882 5.98002 88.8822 5.96751 88.8822 5.95505C88.8822 5.74411 88.8815 5.53317 88.8808 5.32223C88.8794 4.90035 88.8781 4.47847 88.8822 4.05659C88.8822 4.02925 88.8791 3.99932 88.876 3.96865C88.8614 3.82542 88.8452 3.66616 89.1302 3.68006C89.1961 3.68336 89.2662 3.67824 89.3364 3.6731C89.5807 3.65524 89.8273 3.63721 89.9101 3.97222C89.9862 4.27875 90.0843 4.58144 90.1948 4.92266L90.1948 4.92269C90.2482 5.08748 90.3045 5.26126 90.3627 5.4488C90.422 5.26093 90.4787 5.08685 90.5325 4.92199L90.5325 4.92191L90.5325 4.92191C90.6495 4.56295 90.7522 4.24769 90.8363 3.92897C90.9187 3.62116 91.1409 3.6463 91.3586 3.67092C91.4393 3.68005 91.5194 3.6891 91.5915 3.68112C91.8832 3.6487 91.8768 3.82121 91.8708 3.97871C91.87 4.00059 91.8692 4.02217 91.8692 4.04288V5.94134V5.94135C91.8692 6.13014 91.8692 6.28939 91.5555 6.28728C91.2597 6.28728 91.2659 6.1415 91.2722 5.99297C91.2732 5.96967 91.2742 5.9463 91.274 5.92341V4.51222L91.2058 4.508ZM86.9008 4.76111C86.8884 4.92266 86.8884 5.08473 86.9008 5.24628C86.9008 5.31396 86.9013 5.38208 86.9018 5.45047C86.9032 5.64531 86.9047 5.84241 86.8946 6.03836C86.8896 6.2166 86.9442 6.30941 87.1835 6.31047C87.4228 6.31152 87.5294 6.24297 87.5232 6.03203C87.5193 5.85454 87.5215 5.67671 87.5237 5.49888C87.527 5.235 87.5304 4.97112 87.5133 4.70838C87.4885 4.31814 87.5319 4.03337 88.1271 4.13146C88.1645 4.14234 88.2045 4.145 88.2434 4.1392C88.2823 4.1334 88.3189 4.11932 88.3497 4.09827C88.3805 4.07722 88.4046 4.04989 88.4196 4.01881C88.4347 3.98773 88.4403 3.95392 88.4358 3.92052C88.4433 3.74122 88.3267 3.69903 88.142 3.69903H86.2746C86.106 3.6927 85.9671 3.70747 85.9671 3.90364C85.9659 4.0745 86.049 4.16205 86.2424 4.13357C86.871 4.03865 86.9665 4.32763 86.9008 4.76111Z" fill="#1976D2"/>
<path fill-rule="evenodd" clip-rule="evenodd" d="M132.541 28.8233C132.278 29.3577 132.143 29.9314 132.145 30.5108C132.081 31.0121 132.097 31.5147 132.113 32.017C132.117 32.1425 132.121 32.268 132.124 32.3934C132.126 32.8084 132.122 33.2234 132.118 33.6384C132.109 34.5091 132.1 35.3798 132.152 36.2505C132.178 36.4084 132.187 36.5671 132.196 36.726C132.208 36.9417 132.22 37.1577 132.276 37.3727C132.506 38.2681 132.917 39.0159 134.09 39.249C134.961 39.4337 135.873 39.4199 136.735 39.2089C137.598 38.9917 138.134 38.4812 138.382 37.7629C138.466 37.5254 138.514 37.279 138.561 37.0324C138.582 36.9188 138.604 36.8052 138.63 36.6924C138.684 36.1626 138.675 35.6321 138.666 35.102C138.663 34.9019 138.659 34.7018 138.659 34.5018C138.658 34.101 138.662 33.7001 138.665 33.2992C138.674 32.3992 138.682 31.499 138.631 30.5994C138.617 30.5082 138.605 30.4167 138.593 30.3252C138.566 30.126 138.539 29.9266 138.498 29.7293C138.286 28.7146 137.785 27.893 136.488 27.6294C136.003 27.5208 135.5 27.4823 135 27.5155C133.926 27.604 132.987 27.8867 132.541 28.8233ZM137.056 35.952V33.1127C137.027 32.7589 137.04 32.3703 137.053 31.9609C137.075 31.2963 137.099 30.5768 136.949 29.8621C136.807 29.1787 136.399 28.8876 135.567 28.8317C134.787 28.78 134.213 29.0637 133.955 29.6449C133.773 30.0908 133.689 30.5612 133.707 31.0329V35.4953C133.695 35.9514 133.732 36.4076 133.817 36.858C133.99 37.6553 134.417 38.0087 135.285 38.0276C136.212 38.0477 136.731 37.6986 136.938 36.9149C137.021 36.5988 137.06 36.2757 137.056 35.952Z" fill="#1976D2"/>
<path fill-rule="evenodd" clip-rule="evenodd" d="M125.761 37.0982C125.784 36.9924 125.806 36.8866 125.831 36.7814C125.888 36.22 125.878 35.6587 125.867 35.0987C125.864 34.9222 125.861 34.7458 125.859 34.5696C125.858 34.1396 125.861 33.7095 125.865 33.2794C125.874 32.3548 125.882 31.4301 125.832 30.5059C125.819 30.4218 125.807 30.3373 125.795 30.2526C125.769 30.0614 125.743 29.8698 125.697 29.6811C125.475 28.7519 125.046 27.9472 123.853 27.6593C123.358 27.5326 122.84 27.4808 122.323 27.5063C120.951 27.5886 119.95 28.02 119.568 29.312C119.462 29.7349 119.389 30.1634 119.349 30.5945C119.297 30.7447 119.304 30.8978 119.311 31.0503C119.314 31.1035 119.316 31.1565 119.316 31.2094C119.322 31.8007 119.318 32.3922 119.314 32.9837C119.307 34.0117 119.299 35.0397 119.345 36.0673C119.367 36.8562 119.479 37.6283 119.889 38.3529C120.145 38.8074 120.566 39.0426 121.112 39.1966C121.704 39.3629 122.302 39.3526 122.902 39.3423C123.002 39.3406 123.102 39.3389 123.202 39.3379C124.257 39.3274 125.303 38.664 125.583 37.8086C125.659 37.5762 125.71 37.3371 125.761 37.0982ZM124.27 35.8923V33.3726C124.27 33.1755 124.27 32.9785 124.27 32.7814C124.271 32.1244 124.272 31.4679 124.265 30.8139C124.278 30.49 124.245 30.1661 124.167 29.8488C123.972 29.1685 123.578 28.8743 122.763 28.8331C121.949 28.792 121.407 29.0768 121.151 29.7022C120.986 30.1369 120.907 30.5922 120.92 31.0491C120.927 32.6114 120.927 34.1731 120.92 35.734C120.917 36.1316 120.959 36.5285 121.044 36.9195C121.205 37.6758 121.67 38.0164 122.518 38.0312C123.422 38.0459 123.945 37.6958 124.146 36.947C124.235 36.6007 124.277 36.2467 124.27 35.8923Z" fill="#1976D2"/>
<path fill-rule="evenodd" clip-rule="evenodd" d="M96.2564 44.6017C96.1758 44.6308 96.1081 44.6807 96.0627 44.7444C95.998 44.9742 95.9934 45.2132 96.0491 45.4447C96.0689 45.4992 96.0677 45.5577 96.0666 45.6161C96.0646 45.7184 96.0626 45.8205 96.1731 45.9003C96.2975 45.9469 96.4294 45.9403 96.5613 45.9336C96.7041 45.9264 96.8468 45.9191 96.9802 45.9794C96.9908 46.0011 97.0016 46.0225 97.0123 46.0439C97.1519 46.3228 97.2816 46.5817 96.8935 46.857C96.6789 47.0099 96.7955 47.2694 97.0174 47.4318C97.0739 47.4735 97.1387 47.5088 97.2031 47.5439C97.2999 47.5967 97.3958 47.649 97.4613 47.7218C97.6783 47.957 97.8643 47.9085 98.0912 47.7461C98.6008 47.3811 99.0063 47.4729 99.1303 48.0287C99.2121 48.3926 99.4006 48.4928 99.7899 48.438C99.893 48.4322 99.9964 48.4354 100.099 48.4475C100.178 48.4028 100.267 48.407 100.356 48.4112C100.457 48.416 100.558 48.4208 100.642 48.3515C100.727 48.241 100.765 48.1085 100.747 47.9771C100.729 47.7693 100.752 47.6016 101.037 47.5024C101.322 47.4033 101.492 47.4212 101.694 47.6142C101.915 47.8262 102.177 47.8041 102.411 47.6047C102.557 47.4813 102.699 47.3527 102.838 47.2229C103.052 47.0204 103.108 46.8274 102.815 46.6302C102.61 46.492 102.462 46.3634 102.627 46.0807C102.767 45.8392 102.908 45.7284 103.199 45.7896C103.35 45.8208 103.439 45.758 103.529 45.6953C103.566 45.6688 103.604 45.6424 103.646 45.623C103.752 45.4586 103.725 45.2914 103.697 45.1188C103.691 45.0832 103.686 45.0473 103.681 45.0112C103.683 44.6516 103.601 44.3225 103.055 44.4227C102.757 44.4786 102.687 44.3458 102.615 44.2091C102.59 44.1627 102.565 44.1158 102.531 44.0757C102.375 43.8985 102.441 43.7646 102.623 43.6275C102.645 43.6109 102.67 43.5938 102.695 43.576C102.828 43.4844 102.984 43.3765 102.895 43.2404C102.685 42.9163 102.362 42.6562 101.97 42.4968C101.709 42.3917 101.576 42.5454 101.459 42.6818C101.436 42.7083 101.413 42.7342 101.391 42.7573C101.237 42.9133 101.093 42.8659 100.951 42.8192C100.912 42.8062 100.872 42.7933 100.833 42.7848C100.748 42.774 100.672 42.7377 100.616 42.6824C100.561 42.6271 100.531 42.5567 100.533 42.4842C100.483 41.9219 100.471 41.9219 99.7587 41.922C99.7482 41.922 99.7375 41.922 99.7267 41.922L99.7139 41.922C99.2687 41.9209 98.8599 41.9199 98.9827 42.4683C98.9969 42.5076 99 42.5491 98.9919 42.5896C98.9837 42.6301 98.9645 42.6684 98.9358 42.7014C98.9071 42.7345 98.8697 42.7613 98.8266 42.7798C98.7835 42.7983 98.7359 42.8079 98.6876 42.808C98.6198 42.8166 98.554 42.8459 98.4885 42.8752C98.3374 42.9427 98.1873 43.0097 98.0144 42.8206C97.7168 42.4989 97.4142 42.5696 97.108 42.847C96.6517 43.2604 96.5822 43.4956 96.886 43.7878C96.9092 43.8097 96.9344 43.8306 96.9595 43.8513C97.078 43.9494 97.1927 44.0443 97.0658 44.2297C97.05 44.253 97.0349 44.2766 97.0199 44.2999C96.9116 44.4688 96.8111 44.6255 96.5116 44.582C96.4262 44.5656 96.3369 44.5725 96.2564 44.6017ZM101.098 45.9062C101.27 45.7003 101.368 45.4558 101.378 45.2031C101.383 45.0299 101.347 44.8575 101.273 44.6962C101.198 44.5348 101.087 44.3877 100.945 44.2634C100.803 44.1391 100.633 44.0401 100.446 43.9722C100.258 43.9043 100.057 43.8688 99.8532 43.8679C99.5559 43.8695 99.2658 43.9454 99.0189 44.0861C98.7719 44.2268 98.579 44.4261 98.4641 44.6593C98.3493 44.8925 98.3175 45.1493 98.3728 45.3977C98.4281 45.6461 98.568 45.8753 98.7752 46.0566C98.9823 46.238 99.2475 46.3635 99.5378 46.4177C99.8282 46.4719 100.131 46.4523 100.408 46.3614C100.686 46.2704 100.925 46.1122 101.098 45.9062Z" fill="#1976D2"/>
<path fill-rule="evenodd" clip-rule="evenodd" d="M141.951 56.0634C141.927 56.5612 142.4 56.9736 143.087 57.0474C143.359 57.0879 143.636 57.0883 143.908 57.0484C144.798 56.8386 145.157 56.4662 145.157 55.7048V50.7192C145.157 50.3585 144.91 50.1771 144.555 50.3585C144.345 50.4663 144.221 50.4258 144.068 50.3756C144.04 50.3664 144.011 50.3569 143.98 50.3479C142.979 50.06 141.811 50.3268 141.834 51.5619C141.838 51.8839 141.835 52.2062 141.832 52.5283C141.828 53.0153 141.823 53.5021 141.846 53.9877C141.901 55.1426 142.766 55.4506 143.892 55.1848C144.403 55.0635 144.507 55.1247 144.45 55.5307C144.44 55.5858 144.441 55.6417 144.441 55.6973C144.442 55.76 144.443 55.8221 144.429 55.8819C144.32 56.327 143.976 56.577 143.48 56.6002C142.962 56.6202 142.715 56.4009 142.663 55.9874C142.634 55.7684 142.479 55.7823 142.328 55.7959C142.278 55.8005 142.228 55.805 142.183 55.8007C141.965 55.7809 141.959 55.908 141.953 56.0392C141.952 56.0473 141.952 56.0553 141.951 56.0634ZM142.546 52.3247C142.548 52.4661 142.55 52.6072 142.55 52.7474H142.555C142.555 52.8863 142.553 53.0253 142.55 53.1644C142.544 53.4806 142.539 53.7969 142.563 54.1111C142.565 54.2908 142.647 54.4631 142.792 54.5932C142.938 54.7232 143.137 54.8013 143.348 54.8114C143.846 54.8673 144.163 54.6248 144.271 54.2567C144.537 53.2837 144.551 52.2732 144.313 51.2951C144.217 50.8605 143.827 50.6665 143.369 50.7108C142.86 50.7603 142.578 51.0029 142.55 51.4712C142.536 51.755 142.541 52.0406 142.546 52.3247Z" fill="#1976D2"/>
<path fill-rule="evenodd" clip-rule="evenodd" d="M110.797 56.1693C110.905 56.6956 111.287 56.9624 111.882 57.0447C112.187 57.0907 112.5 57.0911 112.805 57.0458C113.459 56.8928 113.863 56.5437 113.973 55.9658C113.996 55.9101 114.006 55.8515 114.004 55.7928V50.5941C114.004 50.5736 114.007 50.552 114.01 50.53C114.02 50.4518 114.03 50.3697 113.919 50.3178C113.397 50.3473 112.891 50.3737 112.358 50.2619C111.487 50.0794 110.65 50.7175 110.65 51.4927C110.649 51.7257 110.644 51.9589 110.638 52.1921C110.624 52.7971 110.61 53.402 110.667 54.0019C110.755 54.8963 111.163 55.2391 112.119 55.2675C112.417 55.2763 112.679 55.2005 112.944 55.1239C112.999 55.1079 113.055 55.0919 113.11 55.0766C113.226 55.0239 113.274 55.0925 113.274 55.1652C113.271 55.2496 113.277 55.3345 113.282 55.4194C113.294 55.606 113.305 55.7929 113.232 55.9763C113.144 56.4372 112.747 56.5596 112.276 56.5975C111.766 56.6387 111.563 56.3465 111.484 56.0058C111.419 55.7277 111.214 55.7624 111.035 55.7926C110.995 55.7993 110.956 55.8059 110.921 55.8086C110.683 55.8278 110.724 55.9461 110.767 56.0704C110.779 56.1035 110.79 56.1371 110.797 56.1693ZM111.351 52.3698C111.353 52.5291 111.355 52.6992 111.355 52.886C111.372 53.0226 111.365 53.1782 111.358 53.3453C111.346 53.6142 111.332 53.9126 111.418 54.2086C111.525 54.5862 111.807 54.7919 112.254 54.8151C112.7 54.8383 112.959 54.6189 113.108 54.2877C113.159 54.1787 113.196 54.0652 113.218 53.9492C113.36 53.1339 113.362 52.3055 113.226 51.4896C113.125 50.9665 112.746 50.6722 112.234 50.7007C111.686 50.7313 111.381 51.0203 111.355 51.5687C111.345 51.8248 111.348 52.0795 111.351 52.3698Z" fill="#1976D2"/>
<path fill-rule="evenodd" clip-rule="evenodd" d="M158.506 52.9489C159.25 52.9574 159.994 52.9574 160.738 52.9574C160.861 52.5785 160.83 52.1904 160.799 51.8036C160.793 51.7198 160.786 51.6361 160.781 51.5525C160.777 51.5309 160.774 51.5095 160.771 51.4882C160.766 51.4511 160.76 51.4142 160.752 51.3774C160.548 50.5073 159.889 50.2078 158.909 50.2499C157.928 50.2921 157.46 50.7689 157.447 51.6305C157.436 52.411 157.433 53.1904 157.455 53.9699C157.477 54.7303 158.026 55.2155 158.863 55.2577C160.022 55.323 160.576 55.0066 160.736 54.1629C160.742 54.1363 160.75 54.1069 160.759 54.0761C160.807 53.9182 160.864 53.7252 160.508 53.6925C160.16 53.6608 160.025 53.7305 160.036 54.068C160.049 54.5014 159.558 54.8252 159.024 54.8178C158.563 54.8126 158.206 54.5215 158.165 54.089C158.154 53.9482 158.154 53.8063 158.154 53.6643C158.154 53.5265 158.153 53.3887 158.144 53.2516C158.134 53.0175 158.238 52.9489 158.506 52.9489ZM158.15 51.6316C158.119 52.4965 158.119 52.4965 159.142 52.4965C160.208 52.4965 160.246 52.4627 160.106 51.5588C160.105 51.5536 160.104 51.5482 160.102 51.5427C160.099 51.5338 160.096 51.5247 160.096 51.5156C159.987 50.9281 159.635 50.6508 159.05 50.6929C158.444 50.7362 158.171 51.021 158.15 51.6316Z" fill="#1976D2"/>
<path fill-rule="evenodd" clip-rule="evenodd" d="M186.529 54.731C185.783 54.9884 185.044 54.653 185.198 53.7818C185.124 53.5215 185.13 53.2497 185.214 52.9918C185.704 52.9357 186.196 52.9444 186.691 52.9531C186.94 52.9575 187.189 52.962 187.438 52.9581C187.686 52.9538 187.824 52.9148 187.81 52.667C187.804 52.524 187.808 52.379 187.813 52.2335C187.82 52.0098 187.826 51.7851 187.794 51.5659C187.661 50.6324 187.201 50.2654 186.05 50.2464C185.006 50.2317 184.5 50.701 184.486 51.6028C184.471 52.3822 184.469 53.1616 184.486 53.94C184.506 54.789 184.982 55.2299 185.87 55.2594C187.126 55.3006 187.668 54.9567 187.792 54.0455C187.815 53.8662 187.798 53.7153 187.53 53.6995C187.518 53.6988 187.506 53.698 187.494 53.6972C187.282 53.6835 187.097 53.6715 187.085 53.9621C187.071 54.2859 186.936 54.5897 186.529 54.731ZM185.174 51.5986C185.059 52.4982 185.059 52.4982 186.095 52.4982C187.144 52.4982 187.146 52.4982 187.099 51.5996C187.099 51.4824 187.083 51.3656 187.051 51.2515C187.014 51.1154 186.929 50.992 186.807 50.8979C186.686 50.8037 186.534 50.7432 186.371 50.7242C185.649 50.6134 185.266 50.8856 185.174 51.5985L185.174 51.5986Z" fill="#1976D2"/>
<path fill-rule="evenodd" clip-rule="evenodd" d="M123.869 54.8192C123.394 54.7897 123.151 54.5429 123.103 54.0419C123.018 53.6933 123.014 53.3337 123.093 52.984C123.316 52.9815 123.539 52.9784 123.763 52.9753C124.283 52.968 124.804 52.9608 125.325 52.9608C125.594 52.9608 125.709 52.8944 125.697 52.6581C125.689 52.4995 125.691 52.3404 125.694 52.1814C125.697 52.0021 125.7 51.8229 125.687 51.6445C125.626 50.7776 125.037 50.2376 124.06 50.2502C122.996 50.2629 122.523 50.5023 122.359 51.4673C122.305 52.289 122.305 53.1126 122.359 53.9343C122.505 55.221 123.334 55.3877 124.591 55.221C125.264 55.1314 125.765 54.4827 125.694 53.9121C125.693 53.8605 125.67 53.811 125.629 53.7724C125.589 53.7339 125.534 53.7086 125.474 53.7012C125.052 53.5964 124.996 53.8248 124.944 54.0351C124.932 54.0829 124.92 54.1298 124.905 54.1716C124.716 54.6736 124.45 54.8561 123.869 54.8192ZM123.042 51.5222C122.874 52.4345 122.936 52.4978 124.006 52.4978C124.54 52.4978 124.794 52.4978 124.91 52.3715C125.014 52.2575 125.007 52.0405 124.993 51.6277C124.972 51.0244 124.686 50.7312 124.083 50.6922C123.502 50.6552 123.15 50.9358 123.042 51.5222Z" fill="#1976D2"/>
<path fill-rule="evenodd" clip-rule="evenodd" d="M127.882 50.3279C127.222 50.4787 127.02 50.9427 126.943 51.4617C126.888 52.2833 126.887 53.1068 126.938 53.9286C127.013 54.4486 127.138 54.9306 127.796 55.1742C128.943 55.5982 130.137 55.0318 130.261 53.995C130.282 53.8147 130.223 53.6997 130 53.6997C129.966 53.6999 129.93 53.6963 129.893 53.6926C129.747 53.678 129.592 53.6624 129.567 53.8759C129.546 53.975 129.515 54.0725 129.474 54.167C129.308 54.6753 129.026 54.8536 128.446 54.8166C127.971 54.7871 127.729 54.5424 127.68 54.0404C127.6 53.6894 127.602 53.3284 127.687 52.9783C127.849 52.9754 128.01 52.9713 128.171 52.9673C128.476 52.9596 128.78 52.9519 129.084 52.9519L129.092 52.9519C130.274 52.9488 130.286 52.9488 130.274 51.9468C130.267 51.5239 130.255 51.0925 129.909 50.7413C129.355 50.1781 128.626 50.158 127.882 50.3279ZM127.619 51.5165C127.448 52.4288 127.514 52.4953 128.579 52.4953C129.116 52.4953 129.371 52.4953 129.487 52.3686C129.591 52.2548 129.583 52.0386 129.569 51.6283C129.548 51.0229 129.267 50.7308 128.663 50.6907C128.081 50.6517 127.729 50.9301 127.619 51.5165Z" fill="#1976D2"/>
<path fill-rule="evenodd" clip-rule="evenodd" d="M102.825 50.2431C101.784 50.3032 101.492 50.4773 101.251 51.2873C101.194 52.2576 101.194 53.2269 101.251 54.1951C101.376 54.7425 101.702 55.1338 102.386 55.2393C103.539 55.4175 104.122 55.1338 104.509 54.194C104.514 54.1575 104.522 54.1208 104.53 54.084C104.56 53.9426 104.59 53.8013 104.451 53.6741C104.405 53.6779 104.358 53.68 104.312 53.6822C104.023 53.6955 103.749 53.7081 103.76 54.1107C103.771 54.5463 103.459 54.7741 102.919 54.8163C102.448 54.8532 102.125 54.6402 101.972 54.2415C101.889 54.0268 101.892 53.8108 101.896 53.5949C101.898 53.4767 101.9 53.3585 101.888 53.2406C101.862 53.0001 101.994 52.9474 102.251 52.9474C102.988 52.959 103.731 52.959 104.475 52.959H104.476C104.581 52.5371 104.556 52.1152 104.531 51.6933C104.524 51.5879 104.518 51.4824 104.514 51.3769C104.254 50.568 103.742 50.1904 102.825 50.2431ZM101.934 51.3654C101.666 52.2861 101.841 52.497 102.865 52.497C103.977 52.497 104.006 52.4749 103.857 51.5172C103.834 51.3868 103.794 51.2588 103.739 51.1354C103.701 51.0452 103.639 50.9637 103.558 50.8972C103.477 50.8308 103.379 50.7813 103.272 50.7526C102.634 50.5596 102.097 50.8043 101.934 51.3654Z" fill="#1976D2"/>
<path d="M89.6571 48.7277C89.4578 48.733 89.2593 48.7035 89.0739 48.6412C88.8884 48.5789 88.7199 48.485 88.5786 48.3653C88.4373 48.2456 88.3263 48.1026 88.2522 47.9452C88.1782 47.7877 88.1428 47.619 88.1481 47.4494C88.1489 47.1156 88.3025 46.7951 88.5763 46.5559C88.8501 46.3167 89.2226 46.1776 89.6149 46.168C90.0252 46.1702 90.4181 46.3093 90.7089 46.5555C90.9998 46.8017 91.1653 47.1352 91.1698 47.4842C91.1566 47.8179 90.9915 48.1342 90.7092 48.3663C90.4269 48.5983 90.0497 48.7279 89.6571 48.7277Z" fill="#1976D2"/>
<path d="M100.665 45.1826C100.663 45.2726 100.639 45.3613 100.597 45.4437C100.554 45.526 100.492 45.6004 100.416 45.6625C100.339 45.7247 100.249 45.7734 100.15 45.8058C100.051 45.8383 99.9459 45.8539 99.8401 45.8518C99.7342 45.8496 99.6299 45.8298 99.5331 45.7933C99.4363 45.7569 99.3489 45.7046 99.2758 45.6394C99.2027 45.5742 99.1455 45.4975 99.1073 45.4135C99.0692 45.3295 99.0508 45.2399 99.0533 45.1499C99.0584 44.9681 99.1482 44.7954 99.303 44.6699C99.4577 44.5444 99.6648 44.4763 99.8785 44.4807C100.092 44.485 100.295 44.5614 100.443 44.693C100.59 44.8247 100.67 45.0007 100.665 45.1826Z" fill="#1976D2"/>
</svg>
