<svg width="154" height="54" viewBox="0 0 154 54" fill="none" xmlns="http://www.w3.org/2000/svg">
<path d="M53.8097 28.8777C53.8097 29.1986 53.8097 29.5186 53.8097 29.8375C53.7168 30.0593 53.8226 30.299 53.7458 30.5227C53.3594 31.7153 54.1861 32.4444 54.8441 33.1686C56.3867 34.8566 58.3357 35.6826 60.6332 35.6556C61.0236 35.6496 61.414 35.6556 61.8054 35.6556C62.0051 35.6556 62.112 35.6886 62.111 35.9263C62.103 37.9239 62.103 39.9192 62.111 41.9122C62.111 42.1169 62.0331 42.1719 61.8404 42.1719C60.4176 42.1659 58.9848 42.2717 57.5739 42.1459C55.2074 41.9353 52.9547 41.0348 51.0948 39.556C50.7718 39.2971 50.464 39.0196 50.1732 38.725C50.0035 38.5572 49.8847 38.5182 49.691 38.704C48.4359 39.9064 46.9408 40.8295 45.3037 41.4128C44.0058 41.8959 42.6337 42.1494 41.2489 42.1619C33.5447 42.1619 25.8408 42.1645 18.1372 42.1699C17.7768 42.1699 17.7378 42.038 17.7378 41.7354C17.7488 39.8666 17.7548 37.9968 17.7378 36.127C17.7378 35.7275 17.8567 35.6436 18.2371 35.6446C25.4813 35.6559 32.7249 35.6583 39.9678 35.6516C42.2823 35.6516 44.0855 34.6728 45.3596 32.7551C47.7559 29.1264 45.5832 24.0524 41.3068 23.2474C40.3373 23.0646 39.3588 23.1415 38.3853 23.1405C32.8717 23.1405 27.3591 23.1695 21.8466 23.1335C20.5545 23.1255 19.2505 23.1795 17.9615 23.0067C16.1642 22.7669 14.5158 22.1567 12.9512 21.2537C11.8449 20.5995 10.8491 19.7743 10.0007 18.8087C8.95868 17.6376 8.14369 16.2828 7.59734 14.8134C7.13305 13.5969 6.95033 12.3354 6.77061 11.0649C6.75463 10.947 6.78159 10.8741 6.91239 10.8711H7.20494C9.41057 10.8711 11.6152 10.8711 13.8208 10.8711C14.1124 10.8711 14.2572 10.8771 14.3201 11.2646C14.5173 12.5612 15.1107 13.765 16.0188 14.7109C16.9269 15.6569 18.1052 16.2987 19.3923 16.5483C19.558 16.5672 19.725 16.5725 19.8915 16.5643C20.0523 16.6362 20.222 16.5993 20.3908 16.5993C26.1513 16.5993 31.9112 16.5993 37.6703 16.5993C37.8371 16.5993 38.0048 16.5733 38.1696 16.6252C39.1171 16.6252 40.0667 16.6252 41.0122 16.6412C44.0556 16.6782 46.7614 17.634 49.1188 19.5777C50.8762 21.0158 52.2218 22.8936 53.0189 25.0203C53.3956 26.0672 53.6405 27.1569 53.7478 28.2644C53.8196 28.4642 53.7258 28.6809 53.8097 28.8777Z" fill="white"/>
<path d="M6.9901 28.293C7.04601 30.829 8.18027 32.8016 10.1852 34.2968C11.5282 35.2956 13.0578 35.7621 14.7362 35.7331C15.2245 35.7251 15.7128 35.7271 16.201 35.7241C16.2729 35.7891 16.2549 35.877 16.2549 35.9589C16.2549 37.9765 16.2549 39.9944 16.2549 42.0127C16.2707 42.0953 16.2539 42.1809 16.208 42.2514H12.1292C11.9934 42.1725 11.8347 42.2514 11.6959 42.1904C8.5537 41.8498 5.92572 40.4925 3.75704 38.2052C2.55611 36.9387 1.65853 35.4158 1.13206 33.7515C0.785586 32.6798 0.532973 31.5851 0.532973 30.4484C0.502257 30.3264 0.493801 30.1999 0.508011 30.0749C0.508011 27.8775 0.514999 25.6711 0.499023 23.4687C0.499023 23.1151 0.598872 23.0322 0.941348 23.0352C2.82314 23.0512 4.70559 23.0512 6.58871 23.0352C6.88326 23.0352 6.96314 23.1221 6.96014 23.4118C6.94716 24.889 6.95315 26.3663 6.96014 27.8435C6.95615 27.9903 6.9222 28.1462 6.9901 28.293Z" fill="white"/>
<path d="M78.7543 23.0724C78.0165 23.0724 77.2766 23.0505 76.5387 23.0724C76.2072 23.0814 76.0884 23.0025 75.9995 22.648C75.6002 21.0389 75.1259 19.4518 74.7015 17.8437C74.1454 15.7661 73.6092 13.6836 73.063 11.6111C72.8404 11.705 72.9632 11.8987 72.9632 12.0356C72.9542 15.5694 72.9572 19.1032 72.9532 22.637C72.9532 22.7808 73.0191 22.9416 72.8933 23.0714C72.461 23.0714 72.0286 23.0575 71.5953 23.0635C71.4016 23.0635 71.3077 23.0015 71.3277 22.7988C71.3337 22.7299 71.3277 22.6599 71.3277 22.59C71.3277 18.2542 71.3327 13.9183 71.3197 9.5825C71.3197 9.19995 71.4196 9.08309 71.802 9.09907C72.428 9.13203 73.057 9.12005 73.6841 9.09907C73.9277 9.09208 74.0266 9.18497 74.0835 9.4087C75.0327 12.9944 75.9879 16.5792 76.9491 20.1629C76.988 20.3077 76.982 20.4975 77.2047 20.6383V20.1759C77.2047 16.6491 77.2127 13.1213 77.1937 9.59448C77.1937 9.17398 77.3145 9.06811 77.7059 9.10506C78.0538 9.12254 78.4024 9.12254 78.7503 9.10506C78.8712 9.20494 78.8142 9.33978 78.8142 9.45664C78.8142 13.8794 78.8142 18.3021 78.8142 22.7249C78.8182 22.8357 78.8751 22.9726 78.7543 23.0724Z" fill="white"/>
<path d="M52.7882 23.7069C52.3309 22.9788 51.9735 22.3206 51.5292 21.7153C50.4482 20.2352 49.0646 19.0023 47.4704 18.0986C47.3485 18.0123 47.2184 17.9384 47.082 17.8779C46.4769 17.6851 46.3391 17.2896 46.3571 16.6683C46.408 14.8435 46.3821 13.0157 46.3681 11.1888C46.3681 10.8892 46.433 10.7833 46.7565 10.7893C48.6396 10.8053 50.5227 10.7993 52.4068 10.7943C52.6624 10.7943 52.8182 10.8233 52.8172 11.1509C52.8085 15.25 52.8062 19.3498 52.8102 23.4502C52.8102 23.4962 52.8022 23.5441 52.7882 23.7069Z" fill="white"/>
<path d="M138.593 19.1993V12.8069C138.667 12.6681 138.593 12.5073 138.655 12.3664C138.693 11.736 138.843 11.1174 139.098 10.5396C139.57 9.48385 140.482 9.14825 141.52 8.99643C141.66 8.9385 141.82 9.01441 141.955 8.9375C142.454 8.94864 142.951 9.00041 143.442 9.09231C144.89 9.41293 145.448 10.3338 145.615 11.6333C145.668 11.9902 145.696 12.3503 145.701 12.711C145.701 12.9747 145.61 13.0476 145.36 13.0356C144.93 13.0156 144.413 13.1655 144.088 12.9767C143.764 12.7879 144.001 12.2186 143.896 11.8191C143.696 11.067 143.281 10.6485 142.546 10.5965C142.342 10.5386 142.126 10.5386 141.923 10.5965C141.031 10.6614 140.454 11.3336 140.425 12.3434C140.343 12.4783 140.425 12.6371 140.36 12.7739C140.314 14.9533 140.314 17.1327 140.36 19.3122C140.434 19.475 140.334 19.6607 140.427 19.8206C140.427 20.8333 141 21.6044 141.925 21.5745C142.156 21.6344 142.398 21.6344 142.63 21.5745C142.727 21.5795 142.824 21.5795 142.921 21.5745C143.899 21.4816 143.976 21.4007 143.972 20.4348C143.972 19.3901 143.957 18.3453 143.949 17.3005C143.437 17.2057 142.922 17.2616 142.41 17.2656C142.127 17.2656 142.037 17.1777 142.064 16.907C142.107 16.4825 142 16.051 142.125 15.6295C143.199 15.6295 144.272 15.6425 145.344 15.6295C145.614 15.6295 145.706 15.7005 145.704 15.9801C145.693 18.0706 145.696 20.1611 145.704 22.2507C145.715 22.338 145.696 22.4266 145.65 22.5016C145.604 22.5766 145.533 22.6336 145.45 22.6632C144.733 22.9988 143.969 23.1046 143.195 23.1766C143.054 23.2355 142.895 23.1616 142.756 23.2355H141.958C141.793 23.1496 141.607 23.2415 141.44 23.1736C140.713 23.0947 140.027 22.9388 139.506 22.3475C139.083 21.8681 138.907 21.2988 138.765 20.6995C138.684 20.3479 138.703 19.9903 138.657 19.6378C138.593 19.4979 138.663 19.3391 138.593 19.1993Z" fill="white"/>
<path d="M93.9232 12.1958C93.9552 11.6354 94.0401 11.0971 94.2857 10.5737C94.4493 10.21 94.6951 9.88929 95.0037 9.63676C95.3122 9.38424 95.6752 9.2068 96.064 9.11843C96.9681 8.88948 97.9153 8.89292 98.8177 9.12842C99.8162 9.38012 100.415 10.1762 100.561 11.3088C100.625 11.8082 100.618 12.3076 100.644 12.807C100.661 13.1366 100.536 13.2066 100.238 13.1926C99.8212 13.1716 99.4028 13.1926 98.9855 13.1926C98.8277 12.9239 99.0045 12.6163 98.8856 12.3426C98.8657 11.9331 98.8307 11.5196 98.62 11.162C98.4203 10.8294 98.0958 10.6626 97.7214 10.5977C97.5207 10.5382 97.3071 10.5382 97.1064 10.5977C96.4074 10.6186 95.9981 10.9253 95.7904 11.5865C95.6356 12.0769 95.6606 12.5853 95.7255 13.0747C95.8054 13.681 96.2377 14.0536 96.724 14.3882C97.5227 14.9405 98.3674 15.4119 99.1632 15.9683C100.153 16.6595 100.724 17.5664 100.803 18.765C100.861 19.6579 100.79 20.5458 100.43 21.3758C99.965 22.4456 99.1063 23.0119 97.9651 23.1737C97.8233 23.2396 97.6655 23.1637 97.5217 23.2356H96.8987C96.7339 23.1497 96.5462 23.2436 96.3795 23.1707C94.6891 23.0159 93.9832 21.9931 93.7835 20.435C93.6946 19.7588 93.7495 19.0866 93.7046 18.4134C94.2877 18.2865 94.8728 18.3315 95.4569 18.3904C95.5777 18.8399 95.4329 19.3053 95.5368 19.7558C95.5248 20.3231 95.6027 20.8625 96.043 21.276C96.1503 21.3848 96.2806 21.4682 96.4244 21.52C96.5681 21.5719 96.7217 21.5909 96.8737 21.5756C97.1001 21.6385 97.3393 21.6385 97.5657 21.5756C98.4643 21.5127 98.9915 20.9374 99.0704 19.9196C99.1283 19.5999 99.1283 19.2724 99.0704 18.9527C98.9785 18.2316 98.5362 17.7731 97.9651 17.3686C97.1663 16.8033 96.2936 16.3598 95.5218 15.7425C94.6232 15.0244 94.0081 14.2004 93.9392 13.0268C93.8928 12.7521 93.8874 12.472 93.9232 12.1958Z" fill="white"/>
<path d="M65.963 22.8255C65.963 29.5635 65.966 36.3012 65.972 43.0385C65.972 43.422 65.8722 43.5379 65.4927 43.5169C64.7938 43.486 64.7938 43.5089 64.7938 42.8108C64.7938 29.4327 64.7905 16.0549 64.7838 2.67752C64.7838 2.24104 64.8907 2.10919 65.328 2.13616C65.965 2.17512 65.967 2.14515 65.967 2.7794V22.8255H65.963Z" fill="white"/>
<path d="M53.8912 17.8061C53.9551 16.4357 55.1692 14.8916 56.9235 14.6099C57.0603 14.538 57.2231 14.6259 57.3569 14.543C58.7857 14.5989 59.9529 15.1153 60.7377 16.3778C61.7072 17.9369 61.2839 20.1373 59.7991 21.22C58.2885 22.3187 56.3894 22.2578 55.0065 20.9893C54.3655 20.401 53.9311 19.6389 53.8922 18.72C53.8494 18.4169 53.8491 18.1093 53.8912 17.8061Z" fill="white"/>
<path d="M137.474 16.7087C136.376 16.7087 135.277 16.7087 134.179 16.6937C133.963 16.6937 133.889 16.7586 133.891 16.9784C133.905 18.4526 133.909 19.9269 133.915 21.4011C134.27 21.491 134.631 21.4371 134.989 21.4411C135.834 21.45 136.686 21.4411 137.528 21.448C137.655 21.448 137.806 21.3751 137.909 21.52C137.903 21.8955 137.875 22.2721 137.898 22.6456C137.919 22.9862 137.789 23.0691 137.465 23.0671C135.725 23.0571 133.984 23.0671 132.244 23.0671C132.126 22.9672 132.182 22.8314 132.182 22.7135C132.182 18.2921 132.182 13.8701 132.182 9.44733C132.182 9.32947 132.126 9.19363 132.244 9.09375H137.724C137.867 9.58117 137.768 10.0796 137.779 10.572C137.779 10.7867 137.579 10.7168 137.454 10.7178C136.411 10.7178 135.367 10.7178 134.324 10.7178C134.188 10.7178 134.044 10.6789 133.915 10.7588C133.882 12.1824 133.882 13.6057 133.915 15.0287C134.424 15.1286 134.938 15.0577 135.449 15.0686C136.032 15.0816 136.617 15.0816 137.2 15.0686C137.443 15.0626 137.569 15.1146 137.539 15.3873C137.492 15.8317 137.61 16.2802 137.474 16.7087Z" fill="white"/>
<path d="M92.3429 25.3598C92.4817 26.3146 92.7972 27.2285 93.0229 28.1634C93.4852 30.0761 93.9714 31.9829 94.4507 33.8926C94.4762 33.9711 94.5069 34.0479 94.5425 34.1223C94.4876 34.1303 94.6064 34.1223 94.5705 34.1603C94.5585 34.1733 94.5984 34.2112 94.6024 34.2052C94.6853 34.0634 94.6504 33.9056 94.6504 33.7578C94.6504 31.1009 94.6504 28.4441 94.6504 25.7873C94.6504 25.6374 94.6104 25.4806 94.6893 25.3368C95.0767 25.2657 95.474 25.268 95.8605 25.3438C95.8605 28.8316 95.8535 32.3195 95.8675 35.8073C95.8675 36.1899 95.7736 36.3227 95.3842 36.2908C94.9663 36.2666 94.5473 36.2649 94.1292 36.2858C93.9295 36.2907 93.8296 36.2218 93.7767 36.0231C93.0838 33.2703 92.3882 30.518 91.6899 27.7659C91.6745 27.684 91.6642 27.6013 91.659 27.5182C91.7139 27.5112 91.5931 27.5182 91.631 27.4812C91.641 27.4703 91.601 27.4303 91.5971 27.4353C91.5132 27.5771 91.5491 27.7349 91.5491 27.8848C91.5491 30.5483 91.5471 33.2117 91.5431 35.8752C91.5431 36.0151 91.623 36.1809 91.4722 36.3007H90.3679C90.2241 36.2009 90.297 36.044 90.297 35.9162C90.297 32.5202 90.297 29.1193 90.2851 25.7203C90.2851 25.3608 90.3949 25.2619 90.7314 25.2938C91.2685 25.3428 91.8117 25.2219 92.3429 25.3598Z" fill="white"/>
<path d="M85.0379 16.7108C83.9925 16.7108 82.9411 16.7108 81.9007 16.6939C81.6012 16.6889 81.5243 16.7768 81.5263 17.0694C81.5393 18.8952 81.5263 20.7221 81.5413 22.5479C81.5413 22.9384 81.4544 23.1212 81.035 23.0673C80.6356 23.0173 80.1075 23.2421 79.8778 22.9754C79.6781 22.7467 79.8089 22.2323 79.8089 21.8447C79.8089 17.7746 79.8089 13.7034 79.7989 9.63326C79.7989 9.23374 79.8648 9.09091 80.3101 9.0979C81.9416 9.12687 83.5731 9.10489 85.2027 9.0979C85.3484 9.58632 85.2476 10.0847 85.2576 10.5771C85.2576 10.7929 85.0579 10.721 84.9321 10.722C83.9426 10.722 82.9531 10.722 81.9646 10.722C81.8278 10.722 81.685 10.684 81.5562 10.7629C81.5143 12.1866 81.5143 13.6099 81.5562 15.0328C82.2062 15.1327 82.8592 15.0548 83.5102 15.0738C83.9426 15.0858 84.3739 15.0738 84.8083 15.0738C84.9231 15.0738 85.1008 15.0278 85.0938 15.2196C85.0768 15.724 85.1817 16.2224 85.0379 16.7108Z" fill="white"/>
<path d="M150.621 23.0711H148.997C148.862 22.9443 148.934 22.7815 148.934 22.6387C148.927 20.9407 148.934 19.2487 148.928 17.5537C148.928 17.4019 148.956 17.2471 148.897 17.1003C148.431 15.7991 147.968 14.4983 147.508 13.1979C147.065 11.9454 146.628 10.6899 146.179 9.43937C146.095 9.20465 146.132 9.10177 146.397 9.10676C146.83 9.11475 147.263 9.12674 147.695 9.10676C147.975 9.09178 148.071 9.20664 148.144 9.46234C148.662 11.2073 149.195 12.9482 149.725 14.6901C149.763 14.815 149.777 14.9558 149.925 15.0737C150.204 14.1488 150.477 13.2548 150.746 12.3599C151.039 11.3811 151.331 10.4012 151.62 9.42039C151.688 9.19166 151.82 9.09378 152.071 9.10676C152.528 9.12974 152.987 9.11276 153.5 9.11276L152.459 12.0772C151.9 13.6653 151.343 15.2538 150.787 16.8426C150.76 16.934 150.739 17.0271 150.725 17.1212C150.653 17.2681 150.689 17.4209 150.689 17.5747C150.689 19.2627 150.689 20.9517 150.683 22.6397C150.683 22.7785 150.752 22.9403 150.621 23.0711Z" fill="white"/>
<path d="M100.899 10.6509C100.921 10.3184 100.924 9.98499 100.909 9.65212C100.87 9.23362 100.984 9.09279 101.439 9.09778C103.736 9.12176 106.032 9.10378 108.321 9.09778C108.471 9.58421 108.359 10.0816 108.38 10.573C108.388 10.7638 108.213 10.7218 108.097 10.7218C107.373 10.7218 106.649 10.7218 105.926 10.7218C105.79 10.7218 105.648 10.6829 105.518 10.7628C105.511 10.9296 105.498 11.0964 105.498 11.2622C105.498 15.0377 105.49 18.8142 105.506 22.5897C105.506 22.9893 105.389 23.0891 105.017 23.0632C104.628 23.0342 104.237 23.0632 103.846 23.0632C103.724 22.9313 103.787 22.7695 103.787 22.6247C103.783 18.8179 103.783 15.0114 103.787 11.2053C103.787 11.0545 103.822 10.8986 103.75 10.7528C102.941 10.6659 102.13 10.7408 101.321 10.7099C101.179 10.7169 101.021 10.8048 100.899 10.6509Z" fill="white"/>
<path d="M124.285 9.09766H131.609C131.749 9.58807 131.65 10.0875 131.662 10.5819C131.662 10.7707 131.488 10.7227 131.374 10.7237C130.675 10.7237 129.976 10.7237 129.277 10.7237C128.822 10.7237 128.821 10.7237 128.821 11.1702C128.821 14.9916 128.821 18.8128 128.821 22.6336C128.821 22.7784 128.889 22.9412 128.758 23.069H127.134C127 22.9412 127.071 22.7784 127.071 22.6346C127.066 18.8131 127.066 14.9916 127.071 11.1702C127.071 10.7247 127.071 10.7237 126.615 10.7237C125.931 10.7237 125.247 10.7107 124.564 10.7297C124.281 10.7377 124.194 10.6368 124.222 10.3701C124.263 9.94864 124.145 9.51616 124.285 9.09766Z" fill="white"/>
<path d="M112.874 33.3606C112.874 31.6127 112.874 29.8651 112.874 28.1179C112.958 27.984 112.874 27.8242 112.938 27.6884C112.954 27.2487 113.053 26.8159 113.23 26.4129C113.455 25.8546 113.894 25.503 114.486 25.3342C115.138 25.1327 115.833 25.1185 116.493 25.2932C117.54 25.5929 117.853 26.0873 118.055 27.1081C118.135 27.5162 118.165 27.9323 118.145 28.3476C117.781 28.4475 117.409 28.3706 117.047 28.3935C116.87 28.4055 116.857 28.2937 116.847 28.1518C116.839 27.9611 116.886 27.7663 116.813 27.5805C116.762 27.0481 116.526 26.6596 115.985 26.5068C115.729 26.4448 115.463 26.4448 115.208 26.5068C114.55 26.5427 114.309 27.2199 114.209 27.7933C114.195 27.9447 114.192 28.0969 114.2 28.2487C114.122 28.5484 114.167 28.855 114.166 29.1576C114.159 30.3782 114.166 31.5987 114.166 32.8193C114.166 32.9551 114.135 33.0969 114.201 33.2288C114.182 33.6157 114.232 34.003 114.348 34.3724C114.397 34.5689 114.505 34.7457 114.657 34.8787C114.81 35.0116 115 35.0944 115.201 35.1155C115.75 35.1944 116.299 35.1555 116.804 34.8648C116.904 33.9529 116.824 33.038 116.845 32.1241C116.845 31.9893 116.886 31.8464 116.804 31.7186L115.478 31.6976C115.393 31.2848 115.393 30.8589 115.478 30.4461C116.26 30.4461 117.042 30.4561 117.823 30.4391C118.086 30.4391 118.15 30.522 118.149 30.7737C118.139 32.3778 118.139 33.9819 118.149 35.586C118.161 35.6816 118.138 35.7783 118.084 35.8581C118.03 35.938 117.949 35.9956 117.856 36.0205C116.667 36.4709 115.452 36.5568 114.229 36.2102C113.507 36.0105 113.25 35.3682 113.054 34.727C112.972 34.4563 112.977 34.1587 112.942 33.874C112.867 33.7082 112.961 33.5214 112.874 33.3606Z" fill="white"/>
<path d="M89.4687 36.2984C89.4137 36.2924 89.3578 36.2844 89.3029 36.2824C88.9714 36.2724 88.5341 36.3903 88.3364 36.2225C88.1017 36.0227 88.2635 35.5713 88.2595 35.2307C88.2482 34.0321 88.2482 32.8365 88.2595 31.6439C88.2595 31.3613 88.1956 31.2444 87.8931 31.2654C87.1452 31.3043 86.3953 31.2264 85.6465 31.3073C85.5656 31.4352 85.6055 31.578 85.6045 31.7129C85.6045 33.1112 85.6046 34.5095 85.5996 35.9139C85.5996 36.0417 85.6675 36.1915 85.5317 36.2984C85.2962 36.2783 85.0597 36.2747 84.8237 36.2874C84.4343 36.3344 84.3105 36.2215 84.3135 35.802C84.3355 33.0183 84.3255 30.2346 84.3245 27.4509C84.3245 26.7518 84.3155 26.0596 84.3115 25.3644C84.682 25.2076 85.0704 25.3115 85.4488 25.3065C85.6874 25.3065 85.5986 25.5332 85.5986 25.6641C85.6055 26.9415 85.5986 28.219 85.6045 29.4955C85.6045 29.6463 85.5686 29.8011 85.6415 29.947C86.5056 30.0128 87.3736 30.0111 88.2375 29.942L88.2485 25.3554C88.6129 25.2296 88.9894 25.3265 89.3588 25.2995C89.3824 25.295 89.4067 25.2962 89.4297 25.303C89.4527 25.3097 89.4738 25.3218 89.4912 25.3383C89.5087 25.3547 89.522 25.3751 89.53 25.3977C89.5381 25.4203 89.5406 25.4445 89.5375 25.4683C89.5375 25.5522 89.5375 25.6361 89.5375 25.719C89.5375 29.115 89.5375 32.5126 89.5375 35.9119C89.5375 36.0407 89.6094 36.1915 89.4687 36.2984Z" fill="white"/>
<path d="M80.8507 26.4997C80.2426 26.5996 79.957 26.9921 79.94 27.7363C79.8791 27.8691 79.9081 28.0109 79.9071 28.1478C79.9071 29.9003 79.9071 31.6536 79.9071 33.4075C79.9071 33.5443 79.8791 33.6862 79.94 33.819C79.96 34.9177 80.61 35.3951 81.5795 35.0326C82.0608 34.8538 82.1586 34.4163 82.2116 34.0058C82.2545 33.6702 82.3583 33.3306 82.3034 32.982C82.2685 32.7613 82.3723 32.6904 82.587 32.6994C82.9065 32.7133 83.227 32.6994 83.5475 32.6994C83.6294 33.0599 83.5974 33.4215 83.5665 33.7831C83.4726 34.5991 83.3668 35.4031 82.6679 35.9804C82.453 36.1547 82.1948 36.2672 81.921 36.3061C80.9685 36.4579 80.0179 36.5208 79.2691 35.7387C78.8599 35.303 78.6321 34.7275 78.6321 34.1296C78.6001 32.0142 78.6181 29.8977 78.6181 27.7812C78.697 27.6444 78.6181 27.4816 78.682 27.3457C78.8268 26.3859 79.1612 25.5628 80.2226 25.2972C80.8281 25.1316 81.466 25.1251 82.0748 25.2782C82.9824 25.5199 83.4287 26.1412 83.5725 27.3467C83.5944 27.7363 83.6534 28.1258 83.5385 28.5113C83.248 28.5113 82.9554 28.4864 82.6669 28.5113C82.3613 28.5363 82.2675 28.4115 82.3094 28.1298C82.3563 27.8301 82.2755 27.5305 82.2275 27.2369C82.1686 26.8773 81.9769 26.5796 81.5735 26.4987C81.3359 26.4417 81.0881 26.442 80.8507 26.4997Z" fill="white"/>
<path d="M77.772 30.0411C77.772 30.0551 77.772 30.069 77.772 30.083C77.736 30.4666 77.9447 30.969 77.6841 31.2037C77.4235 31.4384 76.9383 31.2596 76.5498 31.2696C76.1614 31.2796 75.7421 31.2766 75.3377 31.2696C75.1739 31.2696 75.0741 31.3056 75.0781 31.4983C75.1001 32.654 75.0382 33.8096 75.111 34.9642C75.9208 35.0641 76.7326 34.9792 77.5433 35.0092C77.7041 35.0161 77.8738 34.9582 78.0266 35.0571C78.0266 35.3338 78.0056 35.6134 78.0266 35.8891C78.0536 36.2117 77.9128 36.2886 77.6152 36.2886C76.3671 36.2826 75.119 36.2946 73.8699 36.3006C73.7321 36.1927 73.801 36.0419 73.801 35.9141C73.801 32.5181 73.801 29.1222 73.7891 25.7202C73.7891 25.3636 73.8959 25.2827 74.2334 25.2897C75.3317 25.3097 76.43 25.2957 77.5353 25.2987C77.6701 25.2987 77.8139 25.2578 77.9417 25.3447C77.9008 25.7442 78.1175 26.2546 77.8479 26.5053C77.6022 26.734 77.101 26.5612 76.7136 26.5702C76.2673 26.5802 75.82 26.5792 75.3746 26.5702C75.169 26.5702 75.0751 26.6201 75.0751 26.8489C75.0901 27.8796 75.0921 28.9114 75.0991 29.9452C75.8419 30.0451 76.5888 29.9592 77.3337 29.9901C77.4784 29.9931 77.6372 29.9302 77.772 30.0411Z" fill="white"/>
<path d="M68.5872 9.09766H70.2107C70.3325 9.19754 70.2746 9.33238 70.2746 9.44924C70.2746 13.872 70.2746 18.2947 70.2746 22.7175C70.2746 22.8343 70.3325 22.9712 70.2107 23.069H68.5872C68.4663 22.9692 68.5242 22.8343 68.5242 22.7175C68.5203 18.2947 68.5203 13.872 68.5242 9.44924C68.5242 9.33238 68.4703 9.19554 68.5872 9.09766Z" fill="white"/>
<path d="M120.49 31.5306C119.817 29.4943 119.142 27.4574 118.467 25.4198C118.467 25.3579 118.497 25.304 118.557 25.305C119.006 25.319 119.456 25.243 119.902 25.3439L121.191 29.9385L121.28 29.9455C121.715 28.4139 122.151 26.8851 122.588 25.3589C123.029 25.2351 123.475 25.284 123.92 25.3369C123.262 27.3146 122.604 29.2926 121.946 31.2709C121.865 31.5061 121.824 31.7532 121.824 32.002C121.832 33.3115 121.824 34.6209 121.834 35.9303C121.834 36.204 121.762 36.3039 121.484 36.2859C121.205 36.2679 120.9 36.2909 120.608 36.2969C120.462 36.197 120.536 36.0402 120.536 35.9124C120.529 34.5869 120.536 33.2615 120.53 31.9361C120.533 31.8032 120.569 31.6644 120.49 31.5306Z" fill="white"/>
<path d="M73.4169 25.3487C73.4169 25.6374 73.3989 25.928 73.4169 26.2167C73.4349 26.5054 73.3171 26.5723 73.0555 26.5773C72.4783 26.5863 71.8992 26.5163 71.3251 26.6152C71.2422 26.7581 71.2842 26.9149 71.2842 27.0647C71.2842 30.0005 71.2819 32.936 71.2772 35.8712C71.2772 36.0131 71.3551 36.1769 71.2103 36.2997C70.9605 36.2806 70.7097 36.2769 70.4594 36.2887C70.101 36.3267 69.9912 36.2238 69.9942 35.8413C70.0131 32.9397 70.0051 30.0382 70.0031 27.1366C70.0031 26.5074 70.073 26.5773 69.451 26.5723C69.0326 26.5723 68.6133 26.5603 68.1959 26.5723C67.9543 26.5813 67.8764 26.4934 67.8884 26.2577C67.9054 25.952 67.8884 25.6444 67.8884 25.3378C67.9743 25.2698 68.0751 25.2928 68.17 25.2928H73.1363C73.2332 25.2968 73.336 25.2698 73.4169 25.3487Z" fill="white"/>
<path d="M106.582 35.0889C106.574 35.2127 106.56 35.3366 106.559 35.4604C106.559 36.2814 106.559 36.2794 105.713 36.2824C104.703 36.2824 103.691 36.2934 102.681 36.2984C102.545 36.1905 102.613 36.0397 102.613 35.9109C102.609 32.5256 102.609 29.1403 102.613 25.755C102.613 25.2955 102.613 25.2815 103.096 25.3005C103.365 25.3105 103.646 25.2096 103.905 25.3644C103.901 28.5233 103.898 31.6829 103.896 34.8431C103.901 34.8844 103.91 34.925 103.924 34.964C104.67 35.0639 105.422 34.976 106.166 35.0119C106.302 35.0179 106.469 34.9241 106.582 35.0889Z" fill="white"/>
<path d="M124.083 44.8771V46.9916C124.295 46.9466 124.44 46.7978 124.642 46.7528C125.494 46.5651 126.14 46.9876 126.167 47.8585C126.206 48.9452 126.175 50.0339 126.183 51.1226C126.183 51.3294 126.101 51.3813 125.909 51.3813C125.717 51.3813 125.603 51.3424 125.61 51.1077C125.62 50.1588 125.61 49.2099 125.61 48.262C125.617 48.1096 125.604 47.9569 125.573 47.8076C125.434 47.2632 125.23 47.1264 124.689 47.1853C124.337 47.2243 124.101 47.5039 124.09 47.9624C124.071 48.9942 124.064 50.0269 124.076 51.0587C124.076 51.3733 123.928 51.3943 123.691 51.3773C123.401 51.3574 123.508 51.1386 123.507 50.9998C123.501 48.9502 123.501 46.9 123.507 44.8491C123.702 44.8012 123.898 44.7492 124.083 44.8771Z" fill="white"/>
<path d="M136.017 46.7773H136.461C136.59 46.8882 136.525 47.036 136.526 47.1649C136.532 48.0768 136.526 48.9897 136.526 49.9016C136.526 50.0385 136.495 50.1783 136.561 50.3102C136.576 50.7766 136.781 51.0243 137.168 51.0423C137.37 51.0532 137.569 50.9871 137.724 50.8573C137.879 50.7276 137.979 50.5438 138.004 50.3431C138.164 49.2924 138.044 48.2356 138.082 47.1819C138.089 46.9991 138.015 46.7823 138.346 46.7893C138.678 46.7963 138.657 46.9891 138.657 47.2078C138.657 48.4763 138.657 49.7448 138.651 51.0133C138.651 51.1372 138.732 51.3359 138.535 51.3609C138.387 51.3789 138.187 51.4997 138.07 51.249C137.97 51.0373 137.87 51.249 137.79 51.29C137.236 51.5896 136.556 51.5277 136.221 51.1492C136.021 50.9244 136.006 50.6498 135.967 50.3731C135.91 49.2075 135.953 48.0418 135.944 46.8772C135.947 46.8163 135.99 46.8053 136.017 46.7773Z" fill="white"/>
<path d="M113.53 51.3744H113.036C112.949 50.6263 113.023 49.8762 112.996 49.1261C112.982 48.7525 113.038 48.376 112.961 48.0044C112.918 47.4051 112.712 47.1774 112.225 47.1794C111.737 47.1814 111.471 47.4691 111.451 48.0564C111.427 48.7256 111.442 49.3958 111.44 50.065C111.44 50.3996 111.427 50.7352 111.44 51.0698C111.452 51.3095 111.364 51.3804 111.128 51.3804C110.893 51.3804 110.86 51.2635 110.861 51.0688C110.866 49.7434 110.878 48.4179 110.855 47.0925C110.848 46.667 111.138 46.8248 111.333 46.7759C111.471 46.7959 111.309 47.0286 111.501 47.0116C112.361 46.3204 113.375 46.7409 113.551 47.8626C113.581 49.0352 113.631 50.2058 113.53 51.3744Z" fill="white"/>
<path d="M95.3092 46.7766C95.47 46.8455 95.6966 46.6767 95.8084 46.9524C95.8494 47.0523 95.9892 46.9104 96.08 46.8675C96.6961 46.5788 97.3121 46.6747 97.6776 47.1212C97.9102 47.4088 97.9362 47.7644 97.9412 48.107C97.9572 49.0828 97.9412 50.0587 97.9482 51.0335C97.9482 51.2333 97.9542 51.3781 97.6756 51.3841C97.397 51.3901 97.376 51.2453 97.376 51.0245C97.383 50.1176 97.376 49.2117 97.376 48.3058C97.3808 48.167 97.3714 48.0281 97.3481 47.8913C97.2333 47.3409 96.9786 47.1382 96.4784 47.1811C96.079 47.2151 95.8963 47.4668 95.8643 48.0191C95.7725 48.974 95.8514 49.9308 95.8224 50.8867C95.8224 51.0495 95.8673 51.2193 95.7785 51.3761H95.2872C95.2412 51.3056 95.2244 51.2201 95.2403 51.1374C95.2403 49.7717 95.2403 48.4066 95.2403 47.0423C95.2413 46.9494 95.1964 46.8445 95.3092 46.7766Z" fill="white"/>
<path d="M144.813 46.777H145.257C145.351 46.8299 145.324 46.9218 145.324 47.0007C145.324 48.393 145.324 49.7851 145.324 51.1767C145.331 51.2458 145.318 51.3155 145.284 51.3765C145.111 51.3186 144.861 51.5113 144.764 51.1947C144.728 51.0759 144.633 51.1657 144.564 51.2097C144.396 51.3328 144.202 51.4158 143.997 51.4524C143.088 51.5823 142.606 51.1298 142.62 50.1929C142.634 49.256 142.65 48.3042 142.612 47.3613C142.594 46.9248 142.69 46.7101 143.154 46.778C143.293 46.8838 143.222 47.0327 143.223 47.1595C143.23 48.1583 143.223 49.1482 143.229 50.142C143.229 50.2768 143.194 50.4186 143.267 50.5475C143.285 50.8471 143.467 51.0009 143.738 51.0339C143.886 51.0599 144.039 51.0438 144.179 50.9873C144.319 50.9308 144.44 50.8362 144.529 50.7143C144.629 50.5745 144.729 50.4146 144.699 50.2149C144.786 49.2161 144.71 48.2043 144.741 47.1995C144.753 47.0596 144.668 46.8978 144.813 46.777Z" fill="white"/>
<path d="M85.8438 46.7773C86.0056 46.8232 86.2053 46.7294 86.3241 46.9421C86.389 47.06 86.4489 46.9171 86.5098 46.8892C87.2577 46.5546 88.1673 46.6185 88.4269 47.6143C88.4648 48.8688 88.4868 50.1233 88.4159 51.3778H87.9227C87.8228 51.225 87.8767 51.0532 87.8727 50.8904C87.8468 49.8466 87.9147 48.8009 87.8348 47.7581C87.669 47.2747 87.4564 47.1289 86.9951 47.1838C86.6276 47.2268 86.4309 47.4755 86.396 47.9369C86.3071 48.9207 86.383 49.9076 86.3541 50.8914C86.3491 51.0542 86.406 51.225 86.3041 51.3778H85.8109C85.729 51.0073 85.7779 50.6317 85.775 50.2581C85.767 49.2284 85.775 48.1986 85.775 47.1688C85.7789 47.038 85.715 46.8902 85.8438 46.7773Z" fill="white"/>
<path d="M134.143 46.7709C134.393 46.8618 134.858 46.5941 134.811 47.1704C134.789 47.1884 134.768 47.2154 134.744 47.2184C134.1 47.2913 134.1 47.2913 134.1 47.9355C134.1 48.9463 134.1 49.9571 134.1 50.9689C134.1 51.1017 134.147 51.2466 134.05 51.3684H133.557C133.469 50.5264 133.547 49.6824 133.517 48.8394C133.498 48.316 133.576 47.7907 133.473 47.2693C133.263 47.1524 133.018 47.2943 132.806 47.1844C132.764 47.0426 132.707 46.8997 132.838 46.7719C133.052 46.7799 133.267 46.8178 133.476 46.7449C133.589 46.2835 133.463 45.811 133.543 45.3466C133.578 45.2309 133.636 45.1234 133.713 45.0307C133.79 44.938 133.886 44.862 133.994 44.8074C134.101 44.7527 134.219 44.7205 134.339 44.7128C134.46 44.705 134.581 44.7219 134.694 44.7623C134.821 44.8122 134.801 44.9041 134.806 44.997C134.814 45.1518 134.716 45.1698 134.593 45.1748C134.408 45.1828 134.193 45.1368 134.142 45.4125C134.076 45.8629 134.076 46.3206 134.143 46.7709Z" fill="white"/>
<path d="M140.769 47.2743C140.769 48.3703 140.766 49.466 140.762 50.5614C140.762 50.9609 140.969 51.1067 141.353 51.0238C141.703 51.0688 141.535 51.2835 141.494 51.4563C141.287 51.4563 141.079 51.4653 140.871 51.4563C140.431 51.4413 140.192 51.2026 140.187 50.7571C140.174 49.5945 140.167 48.4309 140.157 47.2683C140.044 47.1904 139.915 47.2313 139.793 47.2263C139.422 47.2113 139.409 47.1904 139.532 46.7709C139.644 46.7709 139.756 46.7709 139.866 46.7849C140.097 46.8118 140.206 46.7279 140.178 46.4852C140.164 46.3886 140.167 46.2901 140.187 46.1946C140.237 46.0008 140.411 45.9708 140.576 45.9448C140.741 45.9189 140.737 46.0447 140.749 46.1566C140.814 46.8038 140.815 46.8038 141.484 46.7729C141.616 47.1864 141.596 47.2153 141.206 47.2283C141.058 47.2373 140.907 47.1914 140.769 47.2743Z" fill="white"/>
<path d="M121.664 46.7669C121.788 46.7841 121.912 46.7915 122.037 46.7888C122.336 46.7609 122.447 46.8887 122.415 47.1764C122.324 47.2763 122.206 47.2303 122.1 47.2303C121.557 47.2303 121.616 47.1924 121.623 47.7357C121.635 48.6237 121.578 49.5116 121.656 50.3975C121.603 50.833 121.729 51.1057 122.235 51.0468C122.352 51.0338 122.413 51.0977 122.409 51.2196C122.409 51.3195 122.409 51.4014 122.287 51.4503C121.709 51.684 121.141 51.3804 121.065 50.7891C121.002 49.7903 121.051 48.7835 121.038 47.7817C121.031 47.2533 121.038 47.2533 120.517 47.2333C120.448 47.2333 120.377 47.2333 120.327 47.1734C120.284 46.8737 120.387 46.7339 120.709 46.7878C120.805 46.7916 120.901 46.7825 120.994 46.7609C121.1 46.5531 120.985 46.3214 121.062 46.1107L121.501 45.9219C121.713 45.9688 121.6 46.1376 121.618 46.2515C121.649 46.4213 121.577 46.6011 121.664 46.7669Z" fill="white"/>
<path d="M106.618 46.7773H107.06C107.171 46.8393 107.112 46.9461 107.13 47.033C107.143 47.097 107.092 47.2108 107.237 47.1819C107.459 46.8523 107.83 46.8722 108.158 46.8003C108.274 46.7753 108.346 46.8393 108.341 46.9631C108.336 47.087 108.389 47.2288 108.196 47.2498C108.086 47.2618 107.974 47.2558 107.866 47.2757C107.391 47.3646 107.197 47.5964 107.167 48.0978C107.081 49.0117 107.153 49.9286 107.127 50.8425C107.121 51.0213 107.168 51.2041 107.089 51.3769H106.596C106.588 51.3659 106.575 51.3539 106.574 51.3419C106.512 49.8437 106.554 48.3355 106.554 46.8323C106.555 46.8113 106.596 46.7943 106.618 46.7773Z" fill="white"/>
<path d="M147.119 51.3769H146.627C146.544 51.219 146.588 51.0483 146.587 50.8844C146.583 49.6459 146.583 48.4067 146.587 47.1669C146.587 47.037 146.521 46.8882 146.652 46.7773H147.095C147.264 46.8233 147.046 47.099 147.287 47.103C147.507 46.8882 147.799 46.8712 148.076 46.8133C148.238 46.7803 148.354 46.8083 148.376 46.9951C148.398 47.1819 148.296 47.2418 148.131 47.2538C147.994 47.2543 147.857 47.2714 147.724 47.3047C147.399 47.4146 147.172 47.6134 147.206 48.0039C147.129 48.9807 147.194 49.9586 147.169 50.9364C147.163 51.0822 147.214 51.241 147.119 51.3769Z" fill="white"/>
<path d="M109.686 49.1015C109.686 49.7407 109.686 50.381 109.686 51.0202C109.686 51.234 109.686 51.3918 109.387 51.3848C109.119 51.3788 109.105 51.2469 109.106 51.0432C109.111 49.7228 109.111 48.402 109.106 47.0809C109.106 46.8811 109.145 46.7812 109.379 46.7812C109.613 46.7812 109.689 46.8661 109.685 47.0989C109.678 47.7671 109.686 48.4343 109.686 49.1015Z" fill="white"/>
<path d="M93.5498 46.7787C94.0041 46.7078 94.0999 46.9286 94.09 47.3461C94.064 48.5097 94.081 49.6743 94.081 50.8419C94.081 51.3793 94.081 51.3793 93.5298 51.3783C93.5228 51.3673 93.5088 51.3553 93.5078 51.3433C93.4469 49.8451 93.4879 48.3379 93.4889 46.8347C93.4889 46.8137 93.5298 46.7957 93.5498 46.7787Z" fill="white"/>
<path d="M80.2043 50.6211H80.4958C80.9462 50.6211 80.9951 50.7 80.9422 51.1655C80.9212 51.3313 80.8483 51.3762 80.7015 51.3722C80.5348 51.3722 80.368 51.3722 80.2023 51.3722C80.1409 51.1255 80.1416 50.8675 80.2043 50.6211Z" fill="white"/>
<path d="M76.6792 51.3743C76.5819 51.3653 76.484 51.3653 76.3867 51.3743C75.9493 51.4582 75.9194 51.2065 75.9344 50.8749C75.9443 50.6652 76.0342 50.6123 76.2179 50.6222C76.3707 50.6312 76.5234 50.6222 76.6772 50.6222C76.7502 50.8675 76.7509 51.1287 76.6792 51.3743Z" fill="white"/>
<path d="M78.7792 51.3786C78.6822 51.3706 78.5847 51.3706 78.4877 51.3786C78.1082 51.4445 77.9994 51.2787 78.0344 50.9181C78.0533 50.7184 78.0913 50.6035 78.3189 50.6185C78.4707 50.6315 78.6245 50.6185 78.7772 50.6185C78.8432 50.8675 78.8439 51.1293 78.7792 51.3786Z" fill="white"/>
<path d="M94.1046 44.8621C94.0707 45.0499 94.1675 45.2616 94.0397 45.4254C93.9319 45.5643 93.7552 45.5033 93.6084 45.4973C93.4087 45.4903 93.4726 45.3275 93.4616 45.2137C93.4506 45.0998 93.4486 44.9939 93.4426 44.8841C93.6583 44.7422 93.881 44.7912 94.1046 44.8621Z" fill="white"/>
<path d="M109.661 45.5086C109.1 45.4886 109.1 45.4886 109.1 44.8453C109.773 44.7305 109.859 44.8314 109.661 45.5086Z" fill="white"/>
<path d="M77.7721 30.039C77.0073 30.0331 76.2435 30.0301 75.4757 30.0161C75.3478 30.0161 75.1951 30.089 75.0942 29.9402C75.8451 29.9402 76.5919 29.9402 77.3458 29.9402C77.4936 29.9432 77.6613 29.8782 77.7721 30.039Z" fill="white"/>
<path fill-rule="evenodd" clip-rule="evenodd" d="M67.0537 43.9948V44.0357C67.0537 44.0987 67.0527 44.1616 67.0517 44.2244C67.049 44.3987 67.0463 44.5717 67.0647 44.7399C67.0837 45.0505 67.2244 45.2573 67.5829 45.2333C67.7128 45.2273 67.8435 45.2293 67.974 45.2313C68.0391 45.2323 68.1042 45.2333 68.169 45.2333C68.2234 45.2268 68.2784 45.2372 68.3266 45.2632C68.3749 45.2891 68.414 45.3292 68.4386 45.3781C68.796 45.9924 68.7791 46.2341 68.3138 46.7335C67.9993 47.0731 67.9963 47.3847 68.3138 47.7193C68.447 47.861 68.5847 47.9969 68.7237 48.134C68.7836 48.1931 68.8437 48.2525 68.9039 48.3126C69.3961 48.812 69.5968 48.826 70.0631 48.3126C70.3377 48.011 70.5763 48.0419 70.9368 48.1418C71.469 48.2867 71.6067 48.5833 71.5259 49.0697C71.5229 49.1113 71.5229 49.153 71.5259 49.1946C71.5159 49.5152 71.6836 49.685 71.9922 49.694C72.4335 49.705 72.8858 49.703 73.3321 49.694C73.6676 49.687 73.8453 49.5002 73.8453 49.1646V48.5793C73.8383 48.5252 73.8489 48.4702 73.8756 48.4226C73.9022 48.3749 73.9434 48.3371 73.9931 48.3146C74.7759 47.8791 74.8188 47.8711 75.4419 48.4964C75.7304 48.7871 75.99 48.7072 76.2407 48.4874C76.4201 48.3301 76.5873 48.1579 76.7546 47.9855C76.821 47.9171 76.8874 47.8488 76.9546 47.7813C77.4039 47.3308 77.4259 47.1081 76.9336 46.6826C76.5931 46.3869 76.5142 46.1232 76.7728 45.7567C76.8294 45.6767 76.8698 45.5865 76.8917 45.491C76.9366 45.2932 77.0464 45.2393 77.2461 45.2323C78.3444 45.1923 78.3444 45.1873 78.3444 44.0817V43.9978C78.3786 42.8595 78.1395 42.8737 77.3342 42.9215C77.3148 42.9227 77.2951 42.9239 77.2751 42.925C77.0313 42.9397 76.9641 42.818 76.8675 42.6428L76.8617 42.6324C76.5402 42.082 76.5582 41.6426 77.1223 41.249C77.3729 41.0742 77.351 40.7866 77.1293 40.5569C76.8278 40.2472 76.5262 39.9416 76.2097 39.6419C75.9451 39.3952 75.6635 39.4052 75.398 39.6549C75.2736 39.7671 75.1553 39.8858 75.0435 40.0105C74.9137 40.1603 74.7979 40.1443 74.6082 40.0914C74.032 39.9306 73.7095 39.6609 73.8323 38.9987C73.9022 38.6242 73.6267 38.4494 73.2792 38.4244C73.0888 38.4109 72.8988 38.4136 72.7098 38.4162C72.6332 38.4173 72.5567 38.4184 72.4804 38.4184C71.5428 38.4174 71.5239 38.4324 71.5239 39.3623C71.5249 39.6359 71.434 39.7608 71.1794 39.8906C70.6812 40.1473 70.2918 40.1933 69.9213 39.6809C69.7526 39.4472 69.445 39.3643 69.1914 39.594C68.84 39.9126 68.5075 40.2532 68.188 40.6028C68.0122 40.7946 67.9663 41.0802 68.188 41.23C68.7891 41.6386 68.803 42.095 68.4496 42.6723C68.4466 42.6772 68.4437 42.682 68.4408 42.6868C68.3505 42.8358 68.2976 42.923 68.1041 42.923C67.5667 42.9097 67.3025 42.8785 67.1734 42.9958C67.0418 43.1155 67.0507 43.3897 67.0537 43.9948ZM73.5473 41.9748C73.2723 41.8642 72.9779 41.8099 72.6815 41.815C72.3851 41.8131 72.0912 41.8698 71.8166 41.9816C71.5421 42.0935 71.2923 42.2584 71.0815 42.467C70.8707 42.6755 70.7031 42.9236 70.5882 43.197C70.4733 43.4704 70.4135 43.7637 70.412 44.0603C70.412 45.2978 71.4744 46.3546 72.7085 46.3426C73.3074 46.3349 73.8788 46.0897 74.2971 45.6608C74.7154 45.2319 74.9463 44.6544 74.9391 44.0553C74.9418 43.7588 74.8851 43.4648 74.7724 43.1906C74.6597 42.9164 74.4932 42.6675 74.2828 42.4587C74.0724 42.2499 73.8223 42.0853 73.5473 41.9748Z" fill="white"/>
<path fill-rule="evenodd" clip-rule="evenodd" d="M112.801 9.11255L108.958 9.10156C108.869 9.17839 108.88 9.2749 108.89 9.36686C108.893 9.39565 108.896 9.42399 108.896 9.45115V22.7174C108.896 22.7456 108.893 22.775 108.89 22.8046C108.88 22.8983 108.869 22.995 108.958 23.0709C109.088 23.0709 109.218 23.068 109.348 23.065C109.608 23.059 109.868 23.053 110.126 23.0709C110.492 23.1009 110.639 23.007 110.619 22.6015C110.593 22.0765 110.599 21.5505 110.605 21.0242C110.607 20.7986 110.61 20.5729 110.61 20.3472C110.614 19.5031 110.621 18.6596 110.627 17.8158C110.63 17.4774 110.633 17.1389 110.636 16.8004C111.161 16.7315 111.692 16.7295 112.218 16.7944C112.807 16.8793 113.32 17.0941 113.537 17.7023C113.786 18.4035 113.84 19.1356 113.8 19.8748C113.847 20.0056 113.841 20.1408 113.836 20.276C113.83 20.401 113.825 20.526 113.862 20.6478L113.883 21.2201C113.925 21.2903 113.922 21.3684 113.919 21.4469C113.917 21.5171 113.915 21.5875 113.944 21.6526C113.956 21.7569 113.968 21.8614 113.98 21.966C114.004 22.1747 114.027 22.3835 114.052 22.5905C114.09 22.9012 114.178 23.1239 114.583 23.0739C114.839 23.043 115.099 23.0509 115.36 23.0588C115.477 23.0624 115.594 23.066 115.711 23.066C115.902 23.068 115.968 23.044 115.916 22.8053C115.74 21.9942 115.602 21.1742 115.628 20.3382C115.58 20.207 115.586 20.0718 115.592 19.9366C115.597 19.8124 115.602 19.6881 115.566 19.5671L115.546 18.3216C115.502 18.2533 115.505 18.1756 115.508 18.0975C115.51 18.0271 115.513 17.9565 115.481 17.8921C115.336 16.8903 114.914 16.1212 113.765 15.9504C114.805 15.6108 115.439 14.9626 115.689 13.9718C115.953 12.976 115.935 11.9261 115.635 10.9404C115.391 10.1533 114.906 9.57899 114.107 9.31731C113.685 9.18094 113.245 9.11184 112.801 9.11255ZM110.606 11.0011V12.9229C110.606 13.1363 110.608 13.3497 110.609 13.5631C110.611 13.9899 110.614 14.4167 110.606 14.8436C110.601 15.0773 110.673 15.1642 110.913 15.1552C111.137 15.1461 111.362 15.1456 111.586 15.145C111.905 15.1442 112.224 15.1434 112.541 15.1182C113.204 15.0663 113.755 14.8086 113.97 14.1044C114.179 13.3944 114.219 12.6454 114.088 11.917C113.988 11.3118 113.611 10.9422 112.99 10.8124C112.451 10.6997 111.908 10.7 111.365 10.7003C111.186 10.7004 111.007 10.7005 110.828 10.6965C110.604 10.6918 110.605 10.825 110.606 10.9692C110.606 10.9798 110.606 10.9905 110.606 11.0011Z" fill="white"/>
<path fill-rule="evenodd" clip-rule="evenodd" d="M92.9302 12.3206C92.6626 10.3249 92.1444 9.35709 90.2523 8.99452C90.1715 8.95851 90.0855 8.9628 89.9998 8.96709C89.9095 8.9716 89.8195 8.9761 89.7361 8.93359H89.112C89.0391 8.9703 88.9621 8.96849 88.8854 8.96669C88.8118 8.96497 88.7386 8.96325 88.6697 8.99552C87.7811 9.15034 86.9743 9.429 86.506 10.294C86.1897 10.8792 86.0073 11.5274 85.9718 12.1917C85.9424 12.2573 85.9441 12.3283 85.9458 12.3996C85.9478 12.4781 85.9497 12.5569 85.9099 12.6292V19.3682C85.9505 19.4398 85.9482 19.5181 85.946 19.5966C85.944 19.667 85.942 19.7376 85.9708 19.8037C85.9879 19.9355 85.9938 20.0683 85.9997 20.2012C86.009 20.4093 86.0182 20.6176 86.0707 20.8224C86.2664 21.5865 86.518 22.3167 87.2329 22.7641C87.6692 23.0368 88.1685 23.1287 88.6677 23.1737C88.7336 23.2016 88.8044 23.1999 88.8755 23.1981C88.9542 23.1962 89.0331 23.1943 89.106 23.2326C89.2624 23.2205 89.419 23.2167 89.5756 23.213C89.8458 23.2065 90.1161 23.2 90.3861 23.1507C91.5443 22.9409 92.393 22.3706 92.7275 21.192C92.7952 20.9536 92.8404 20.7094 92.8857 20.4652C92.9058 20.3564 92.926 20.2476 92.9481 20.1393C92.9847 20.0309 92.98 19.9185 92.9752 19.8061C92.9701 19.6855 92.965 19.5649 93.011 19.4491V13.2185C92.9661 13.101 92.9712 12.9794 92.9763 12.8578C92.9809 12.7469 92.9855 12.636 92.9521 12.5283C92.9505 12.5121 92.9489 12.496 92.9474 12.4799C92.9422 12.4265 92.9371 12.3735 92.9302 12.3206ZM91.2687 19.1771V16.0389L91.2587 16.0339C91.2587 15.6821 91.261 15.3304 91.2633 14.9786C91.2689 14.1318 91.2745 13.285 91.2477 12.4382C91.2277 11.8169 91.1618 11.1607 90.5428 10.7811C89.4564 10.1139 88.1075 10.6433 87.783 11.8638C87.7095 12.1324 87.6679 12.4086 87.6592 12.6869C87.6063 14.8623 87.6183 17.0377 87.6512 19.2131C87.6604 19.548 87.6937 19.8818 87.751 20.2119C87.9018 21.1288 88.3901 21.5613 89.3336 21.6282C90.2233 21.6921 90.8333 21.2766 91.0969 20.4147C91.2154 20.013 91.2733 19.5959 91.2687 19.1771Z" fill="white"/>
<path fill-rule="evenodd" clip-rule="evenodd" d="M116.439 21.7783C116.351 22.203 116.262 22.6297 116.174 23.0595C116.314 23.0595 116.451 23.0593 116.587 23.0591C116.922 23.0587 117.249 23.0583 117.575 23.0605C117.77 23.0615 117.867 23.0045 117.904 22.7838C117.977 22.3599 118.059 21.9374 118.141 21.5148C118.228 21.0692 118.314 20.6235 118.39 20.1759C118.426 19.9631 118.496 19.8902 118.704 19.8902H121.508C121.665 19.8892 121.747 19.9092 121.777 20.109C121.832 20.473 121.899 20.8357 121.965 21.1985C122.039 21.6003 122.113 22.0021 122.171 22.4062C122.174 22.4275 122.177 22.448 122.18 22.4679C122.263 23.0565 122.263 23.0565 122.892 23.0565C122.99 23.0565 123.088 23.054 123.186 23.0516C123.382 23.0467 123.577 23.0418 123.771 23.0565C124.081 23.0834 124.134 22.9386 124.081 22.6839C123.961 22.1019 123.841 21.5203 123.722 20.939C123.23 18.5312 122.738 16.1234 122.247 13.7156C122.191 13.438 122.134 13.1604 122.077 12.8827C121.846 11.7536 121.616 10.6237 121.394 9.49259C121.334 9.18196 121.201 9.06909 120.869 9.09306C120.382 9.13352 119.893 9.13352 119.406 9.09306C119.064 9.0631 118.957 9.24588 118.917 9.49259C118.796 10.2214 118.642 10.9437 118.487 11.6659C118.376 12.183 118.266 12.6999 118.167 13.2192C117.972 14.2511 117.76 15.2791 117.548 16.3072C117.372 17.1588 117.196 18.0105 117.03 18.8644C116.842 19.8342 116.642 20.8011 116.439 21.7783ZM121.081 16.0718C120.771 14.4071 120.461 12.7425 120.151 11.0778L120.09 11.0878C119.928 11.9614 119.765 12.835 119.602 13.7086C119.532 14.086 119.463 14.4634 119.394 14.8407C119.207 15.8569 119.02 16.8728 118.82 17.8867C118.751 18.2412 118.838 18.3321 119.197 18.3152C119.778 18.2867 120.361 18.2962 120.944 18.3057C121.017 18.3069 121.089 18.3081 121.162 18.3092C121.398 18.3132 121.51 18.2962 121.441 17.9965C121.341 17.5643 121.265 17.1265 121.19 16.6885C121.154 16.4828 121.119 16.2771 121.081 16.0718Z" fill="white"/>
<path fill-rule="evenodd" clip-rule="evenodd" d="M69.6983 6.98488L69.6982 6.98488H69.6982C69.6331 6.9798 69.5693 6.97483 69.5041 6.97483H69.5041C68.6484 6.97483 68.6454 6.97483 68.6494 6.10187C68.6494 5.87302 68.6479 5.64411 68.6463 5.41521C68.6415 4.71103 68.6367 4.00697 68.6774 3.30519C68.7663 1.76802 69.6559 0.478557 71.3463 0.133967C71.4788 0.107452 71.6104 0.0712815 71.7391 0.0358982L71.7457 0.034086C72.1331 -0.011362 72.5245 -0.011362 72.9119 0.034086C73.6328 0.170923 74.3278 0.371686 74.9159 0.841128C75.5788 1.3705 75.8684 2.09963 76.0292 2.89868C76.0701 3.1735 76.0701 3.45287 76.0292 3.72769C75.6617 5.63942 74.3907 6.5773 72.5754 6.92389C72.1019 6.96103 71.628 6.95586 71.1539 6.95069H71.1539C70.8503 6.94737 70.5467 6.94406 70.243 6.95186C70.1965 6.95534 70.1491 6.95411 70.1015 6.95286C69.9989 6.95018 69.8949 6.94747 69.7947 6.99181C69.762 6.98985 69.73 6.98735 69.6983 6.98488ZM73.9476 3.39748C73.913 3.53319 73.8779 3.66881 73.8429 3.8044L73.8429 3.8044C73.7574 4.13485 73.672 4.46508 73.5941 4.79582C73.5522 4.9786 73.4943 5.09047 73.2746 5.09546C73.0549 5.10045 72.997 4.97261 72.9551 4.79582C72.8509 4.31976 72.7049 3.85383 72.5188 3.40347V4.78183L72.5188 4.79526C72.519 4.94971 72.5191 5.0873 72.2901 5.08148C72.073 5.07596 72.0746 4.94159 72.0762 4.80333L72.0764 4.76785C72.0764 4.56809 72.0759 4.36833 72.0753 4.16856C72.0742 3.76904 72.0731 3.36951 72.0764 2.96999C72.0764 2.9441 72.074 2.91575 72.0715 2.88671C72.0597 2.75107 72.0467 2.60025 72.2761 2.61341C72.3292 2.61654 72.3857 2.61168 72.4422 2.60682C72.6389 2.58991 72.8375 2.57283 72.9042 2.89009C72.9654 3.18037 73.0444 3.46702 73.1334 3.79015L73.1335 3.79017L73.1335 3.79023C73.1765 3.94628 73.2218 4.11084 73.2686 4.28842C73.3164 4.11048 73.3621 3.9456 73.4054 3.78945C73.4996 3.44952 73.5823 3.15097 73.65 2.84913C73.7163 2.55763 73.8953 2.58144 74.0706 2.60476C74.1356 2.6134 74.2001 2.62197 74.2581 2.61441C74.4931 2.58372 74.4878 2.74708 74.4831 2.89624V2.89626C74.4824 2.91697 74.4818 2.9374 74.4818 2.957V4.75487V4.75487C74.4818 4.93366 74.4818 5.08447 74.2292 5.08248C73.9909 5.08248 73.9959 4.94441 74.001 4.80376V4.80375C74.0018 4.78169 74.0026 4.75956 74.0025 4.73789V3.40148L73.9476 3.39748ZM70.4785 3.63718C70.4685 3.79017 70.4685 3.94365 70.4785 4.09664C70.4785 4.16074 70.4789 4.22524 70.4793 4.29001C70.4805 4.47452 70.4816 4.66118 70.4735 4.84675C70.4695 5.01555 70.5134 5.10344 70.7061 5.10444C70.8989 5.10544 70.9847 5.04052 70.9797 4.84075C70.9765 4.67267 70.9783 4.50426 70.9801 4.33585C70.9828 4.08596 70.9855 3.83606 70.9717 3.58724C70.9518 3.21768 70.9867 2.948 71.466 3.04089C71.4961 3.0512 71.5283 3.05372 71.5597 3.04823C71.591 3.04273 71.6204 3.0294 71.6453 3.00946C71.6701 2.98953 71.6894 2.96364 71.7016 2.93421C71.7137 2.90478 71.7182 2.87276 71.7146 2.84113C71.7206 2.67133 71.6267 2.63138 71.478 2.63138H69.9743C69.8385 2.62539 69.7267 2.63937 69.7267 2.82515C69.7257 2.98696 69.7925 3.06986 69.9483 3.04289C70.4545 2.953 70.5314 3.22667 70.4785 3.63718Z" fill="white"/>
<path fill-rule="evenodd" clip-rule="evenodd" d="M107.227 26.4213C107.015 26.9274 106.906 27.4708 106.907 28.0194C106.856 28.4941 106.869 28.9701 106.882 29.4458C106.885 29.5647 106.888 29.6835 106.89 29.8023C106.892 30.1953 106.889 30.5883 106.886 30.9813C106.879 31.8058 106.872 32.6304 106.913 33.455C106.935 33.6045 106.942 33.7548 106.949 33.9053C106.959 34.1095 106.968 34.3141 107.013 34.5177C107.198 35.3657 107.53 36.0739 108.474 36.2946C109.175 36.4695 109.91 36.4564 110.604 36.2566C111.299 36.0509 111.73 35.5675 111.93 34.8873C111.998 34.6623 112.036 34.4289 112.074 34.1955C112.092 34.0879 112.109 33.9803 112.129 33.8735C112.174 33.3717 112.166 32.8694 112.159 32.3673C112.156 32.1778 112.153 31.9883 112.153 31.7989C112.152 31.4194 112.155 31.0397 112.158 30.66C112.165 29.8078 112.172 28.9553 112.13 28.1033C112.12 28.0169 112.11 27.9303 112.1 27.8437C112.078 27.655 112.057 27.4662 112.024 27.2793C111.853 26.3185 111.45 25.5404 110.405 25.2907C110.015 25.1878 109.61 25.1514 109.207 25.1828C108.342 25.2667 107.585 25.5344 107.227 26.4213ZM110.864 33.1734V30.4846C110.84 30.1495 110.851 29.7815 110.862 29.3938C110.879 28.7644 110.898 28.083 110.778 27.4062C110.663 26.759 110.334 26.4833 109.664 26.4304C109.036 26.3814 108.574 26.6501 108.366 27.2005C108.22 27.6228 108.153 28.0682 108.167 28.5149V32.7409C108.157 33.1728 108.187 33.6048 108.256 34.0313C108.394 34.7864 108.739 35.121 109.438 35.139C110.184 35.158 110.602 34.8274 110.769 34.0853C110.835 33.7859 110.867 33.48 110.864 33.1734Z" fill="white"/>
<path fill-rule="evenodd" clip-rule="evenodd" d="M101.767 34.2575C101.786 34.1573 101.804 34.0571 101.824 33.9575C101.87 33.4259 101.861 32.8943 101.853 32.364C101.85 32.1969 101.848 32.0298 101.847 31.863C101.845 31.4558 101.848 31.0485 101.851 30.6411C101.858 29.7655 101.865 28.8898 101.825 28.0146C101.814 27.9349 101.805 27.8549 101.795 27.7747C101.774 27.5937 101.753 27.4121 101.716 27.2335C101.537 26.3535 101.192 25.5915 100.231 25.3188C99.832 25.1988 99.415 25.1498 98.999 25.174C97.8937 25.2519 97.0879 25.6604 96.7804 26.8839C96.6951 27.2845 96.636 27.6902 96.6037 28.0985C96.5622 28.2407 96.568 28.3857 96.5737 28.5302C96.5757 28.5805 96.5777 28.6307 96.5777 28.6808C96.5825 29.2408 96.5791 29.8009 96.5757 30.3611C96.5698 31.3346 96.5639 32.3081 96.6007 33.2813C96.6187 34.0284 96.7085 34.7595 97.039 35.4457C97.2447 35.8762 97.5842 36.099 98.0235 36.2448C98.5001 36.4023 98.9819 36.3925 99.465 36.3827C99.5456 36.3811 99.6263 36.3795 99.7069 36.3786C100.557 36.3686 101.398 35.7404 101.624 34.9303C101.686 34.7102 101.727 34.4838 101.767 34.2575ZM100.566 33.1159V30.7298C100.566 30.5432 100.566 30.3565 100.566 30.17C100.567 29.5477 100.568 28.926 100.562 28.3067C100.572 28 100.546 27.6932 100.483 27.3927C100.327 26.7485 100.009 26.4698 99.353 26.4309C98.697 26.3919 98.2607 26.6616 98.055 27.2539C97.9216 27.6656 97.8585 28.0968 97.8683 28.5294C97.8743 30.009 97.8743 31.4879 97.8683 32.9661C97.8664 33.3426 97.8999 33.7185 97.9681 34.0888C98.0979 34.8049 98.4724 35.1275 99.1553 35.1415C99.8832 35.1555 100.305 34.8239 100.466 34.1147C100.538 33.7868 100.572 33.4516 100.566 33.1159Z" fill="white"/>
<path fill-rule="evenodd" clip-rule="evenodd" d="M78.0106 41.3659C77.9458 41.3935 77.8912 41.4408 77.8547 41.5011C77.8026 41.7187 77.7988 41.9451 77.8437 42.1643C77.8596 42.2159 77.8587 42.2713 77.8578 42.3266C77.8562 42.4235 77.8546 42.5201 77.9435 42.5958C78.0437 42.6399 78.1499 42.6336 78.2562 42.6273C78.3711 42.6204 78.4861 42.6136 78.5935 42.6707C78.602 42.6911 78.6107 42.7115 78.6193 42.7317C78.7318 42.9958 78.8362 43.241 78.5236 43.5017C78.3509 43.6465 78.4448 43.8922 78.6235 44.046C78.669 44.0855 78.7211 44.119 78.773 44.1522C78.8509 44.2022 78.9282 44.2517 78.9809 44.3207C79.1557 44.5435 79.3054 44.4975 79.4882 44.3437C79.8985 43.9981 80.225 44.085 80.3249 44.6114C80.3908 44.956 80.5425 45.0508 80.8561 44.9989C80.939 44.9935 81.0223 44.9965 81.1047 45.0079C81.1688 44.9656 81.2406 44.9696 81.3117 44.9736C81.3934 44.9781 81.4742 44.9827 81.542 44.917C81.6109 44.8124 81.6409 44.6869 81.6269 44.5624C81.6119 44.3657 81.6309 44.2069 81.8605 44.113C82.0902 44.0191 82.227 44.0361 82.3897 44.2188C82.5675 44.4196 82.7781 44.3986 82.9668 44.2098C83.0847 44.093 83.1985 43.9711 83.3103 43.8483C83.483 43.6565 83.528 43.4737 83.2923 43.2869C83.1266 43.1561 83.0078 43.0342 83.1406 42.7666C83.2534 42.5378 83.3672 42.433 83.6009 42.4909C83.723 42.5204 83.7949 42.461 83.8666 42.4016C83.8969 42.3765 83.9272 42.3515 83.9613 42.3331C84.0466 42.1774 84.0248 42.0191 84.0023 41.8557C83.9977 41.8219 83.993 41.788 83.9893 41.7538C83.9913 41.4132 83.9254 41.1015 83.485 41.1964C83.245 41.2494 83.1886 41.1236 83.1306 40.9941C83.1109 40.9502 83.091 40.9058 83.0637 40.8678C82.9379 40.7 82.9908 40.5732 83.1376 40.4433C83.1552 40.4276 83.1752 40.4114 83.1958 40.3946C83.3025 40.3079 83.4282 40.2056 83.3562 40.0768C83.1877 39.7698 82.9272 39.5236 82.6114 39.3726C82.4015 39.2731 82.2946 39.4186 82.1997 39.5478C82.1813 39.5729 82.1633 39.5974 82.1451 39.6193C82.0217 39.767 81.9056 39.7221 81.7912 39.6779C81.7593 39.6656 81.7275 39.6533 81.6958 39.6453C81.6279 39.6351 81.566 39.6007 81.5215 39.5483C81.4771 39.496 81.4532 39.4293 81.4541 39.3606C81.4138 38.8281 81.4045 38.8281 80.8309 38.8282C80.8225 38.8282 80.8139 38.8282 80.8051 38.8282L80.7948 38.8282C80.4364 38.8272 80.1072 38.8262 80.2061 39.3456C80.2175 39.3828 80.22 39.4222 80.2134 39.4605C80.2069 39.4988 80.1914 39.5351 80.1683 39.5664C80.1452 39.5977 80.1151 39.6231 80.0804 39.6406C80.0456 39.6581 80.0073 39.6672 79.9684 39.6673C79.9138 39.6754 79.8608 39.7032 79.8081 39.7309C79.6864 39.7948 79.5656 39.8583 79.4263 39.6792C79.1866 39.3746 78.943 39.4415 78.6964 39.7042C78.3289 40.0957 78.273 40.3185 78.5176 40.5951C78.5363 40.6159 78.5566 40.6357 78.5768 40.6553C78.6723 40.7482 78.7646 40.838 78.6624 41.0136C78.6497 41.0357 78.6375 41.058 78.6255 41.0801C78.5383 41.2401 78.4574 41.3885 78.2161 41.3473C78.1473 41.3318 78.0755 41.3383 78.0106 41.3659ZM81.9107 42.6026C82.0496 42.4076 82.1281 42.176 82.1366 41.9367C82.1404 41.7726 82.1115 41.6094 82.0516 41.4566C81.9917 41.3038 81.902 41.1645 81.7877 41.0468C81.6733 40.9291 81.5367 40.8353 81.3857 40.771C81.2348 40.7067 81.0725 40.6731 80.9085 40.6722C80.6691 40.6737 80.4355 40.7456 80.2366 40.8789C80.0378 41.0121 79.8824 41.2009 79.7899 41.4217C79.6974 41.6426 79.6719 41.8857 79.7164 42.121C79.7609 42.3563 79.8736 42.5732 80.0404 42.745C80.2072 42.9167 80.4207 43.0356 80.6545 43.0869C80.8883 43.1382 81.132 43.1197 81.3554 43.0336C81.5787 42.9475 81.7718 42.7976 81.9107 42.6026Z" fill="white"/>
<path fill-rule="evenodd" clip-rule="evenodd" d="M114.807 52.2197C114.787 52.6912 115.168 53.0817 115.722 53.1516C115.94 53.19 116.164 53.1903 116.383 53.1526C117.099 52.9539 117.388 52.6013 117.388 51.8801V47.1587C117.388 46.8172 117.189 46.6454 116.904 46.8172C116.734 46.9193 116.634 46.8809 116.511 46.8334C116.488 46.8247 116.465 46.8157 116.44 46.8072C115.635 46.5345 114.694 46.7872 114.712 47.9568C114.716 48.2618 114.714 48.5669 114.711 48.872C114.707 49.3332 114.703 49.7942 114.722 50.2541C114.766 51.3478 115.463 51.6394 116.37 51.3877C116.781 51.2729 116.865 51.3308 116.819 51.7153C116.811 51.7674 116.811 51.8205 116.812 51.8731C116.813 51.9324 116.814 51.9913 116.802 52.0479C116.714 52.4694 116.437 52.7061 116.038 52.7281C115.621 52.7471 115.422 52.5393 115.38 52.1478C115.357 51.9404 115.232 51.9536 115.11 51.9665C115.07 51.9708 115.03 51.975 114.994 51.971C114.818 51.9522 114.813 52.0726 114.808 52.1969C114.808 52.2045 114.807 52.2121 114.807 52.2197ZM115.287 48.6791C115.289 48.8131 115.291 48.9466 115.291 49.0794H115.295C115.295 49.2109 115.293 49.3426 115.291 49.4744C115.286 49.7738 115.281 50.0733 115.301 50.3709C115.302 50.5411 115.368 50.7043 115.486 50.8274C115.603 50.9506 115.763 51.0245 115.933 51.0341C116.334 51.087 116.59 50.8573 116.677 50.5087C116.89 49.5873 116.902 48.6304 116.711 47.7041C116.633 47.2926 116.319 47.1088 115.95 47.1507C115.54 47.1977 115.313 47.4274 115.291 47.8709C115.279 48.1396 115.283 48.4101 115.287 48.6791Z" fill="white"/>
<path fill-rule="evenodd" clip-rule="evenodd" d="M89.7202 52.3234C89.8071 52.8218 90.1146 53.0745 90.5939 53.1524C90.8399 53.1959 91.0916 53.1963 91.3378 53.1534C91.864 53.0086 92.1895 52.6779 92.2783 52.1306C92.2961 52.0779 92.3045 52.0224 92.3033 51.9668V47.0436C92.3033 47.0242 92.3055 47.0037 92.3077 46.9829C92.3157 46.9088 92.3241 46.8311 92.2344 46.7819C91.814 46.8099 91.4067 46.8349 90.9773 46.729C90.2764 46.5562 89.6024 47.1605 89.6024 47.8946C89.6013 48.1152 89.597 48.3361 89.5926 48.5569C89.5813 49.1299 89.57 49.7027 89.6154 50.2708C89.6863 51.1178 90.0148 51.4424 90.7846 51.4694C91.0251 51.4776 91.2361 51.4059 91.4495 51.3333C91.4939 51.3182 91.5385 51.3031 91.5834 51.2886C91.6762 51.2387 91.7152 51.3036 91.7152 51.3725C91.713 51.4524 91.7173 51.5328 91.7215 51.6132C91.7309 51.7899 91.7403 51.9669 91.6812 52.1406C91.6103 52.5771 91.2908 52.6929 90.9114 52.7289C90.5011 52.7678 90.3373 52.4912 90.2734 52.1686C90.2212 51.9052 90.0559 51.938 89.9122 51.9666C89.8799 51.973 89.8487 51.9792 89.8201 51.9818C89.6286 51.9999 89.6616 52.112 89.6963 52.2297C89.7056 52.2611 89.715 52.2929 89.7202 52.3234ZM90.1666 48.7259C90.168 48.8768 90.1695 49.0378 90.1695 49.2148C90.1837 49.3441 90.178 49.4915 90.172 49.6497C90.1623 49.9044 90.1515 50.187 90.2204 50.4673C90.3063 50.8249 90.534 51.0196 90.8934 51.0416C91.2528 51.0636 91.4615 50.8558 91.5813 50.5422C91.6228 50.439 91.6526 50.3314 91.6702 50.2216C91.784 49.4495 91.786 48.665 91.6762 47.8924C91.5953 47.397 91.2898 47.1183 90.8774 47.1453C90.4361 47.1742 90.1905 47.4479 90.1695 47.9673C90.1618 48.2098 90.164 48.451 90.1666 48.7259Z" fill="white"/>
<path fill-rule="evenodd" clip-rule="evenodd" d="M128.137 49.2666C128.736 49.2746 129.335 49.2746 129.934 49.2746C130.033 48.9159 130.009 48.5483 129.984 48.182C129.978 48.1026 129.973 48.0233 129.969 47.9442C129.966 47.9238 129.964 47.9035 129.961 47.8833C129.957 47.8482 129.952 47.8133 129.946 47.7784C129.781 46.9544 129.251 46.6707 128.461 46.7107C127.672 46.7506 127.295 47.2021 127.284 48.0181C127.275 48.7572 127.273 49.4954 127.291 50.2335C127.308 50.9536 127.75 51.4131 128.424 51.453C129.358 51.515 129.804 51.2153 129.933 50.4163C129.937 50.3911 129.944 50.3632 129.952 50.3341C129.99 50.1846 130.036 50.0017 129.749 49.9708C129.469 49.9408 129.36 50.0068 129.369 50.3264C129.38 50.7369 128.985 51.0435 128.554 51.0365C128.183 51.0315 127.895 50.7559 127.862 50.3464C127.854 50.213 127.854 50.0786 127.853 49.9441C127.853 49.8137 127.853 49.6831 127.845 49.5533C127.837 49.3316 127.921 49.2666 128.137 49.2666ZM127.85 48.0186C127.825 48.8376 127.825 48.8376 128.649 48.8376C129.507 48.8376 129.538 48.8057 129.426 47.9497C129.425 47.9447 129.423 47.9396 129.422 47.9344C129.42 47.926 129.418 47.9174 129.418 47.9087C129.33 47.3524 129.046 47.0897 128.575 47.1297C128.087 47.1706 127.867 47.4403 127.85 48.0186Z" fill="white"/>
<path fill-rule="evenodd" clip-rule="evenodd" d="M150.706 50.9543C150.105 51.198 149.51 50.8804 149.633 50.0554C149.574 49.8089 149.579 49.5515 149.646 49.3073C150.041 49.2541 150.438 49.2624 150.836 49.2706C151.036 49.2748 151.237 49.279 151.438 49.2753C151.637 49.2713 151.748 49.2343 151.737 48.9996C151.732 48.8643 151.736 48.7269 151.739 48.5891C151.745 48.3773 151.75 48.1645 151.724 47.9569C151.617 47.0729 151.247 46.7253 150.319 46.7074C149.479 46.6934 149.071 47.1378 149.06 47.9918C149.048 48.7299 149.046 49.4681 149.06 50.2052C149.076 51.0092 149.46 51.4267 150.175 51.4547C151.186 51.4937 151.622 51.168 151.722 50.3051C151.741 50.1353 151.727 49.9924 151.512 49.9775C151.502 49.9768 151.492 49.976 151.483 49.9753C151.312 49.9623 151.163 49.951 151.153 50.2262C151.142 50.5328 151.033 50.8205 150.706 50.9543ZM149.615 47.9891C149.522 48.8411 149.522 48.8411 150.357 48.8411C151.202 48.8411 151.203 48.8411 151.165 47.9901C151.165 47.8791 151.153 47.7685 151.127 47.6605C151.097 47.5315 151.028 47.4147 150.931 47.3256C150.833 47.2364 150.71 47.179 150.579 47.1611C149.998 47.0562 149.689 47.3139 149.615 47.9891L149.615 47.9891Z" fill="white"/>
<path fill-rule="evenodd" clip-rule="evenodd" d="M100.244 51.038C99.8618 51.01 99.6661 50.7763 99.6271 50.3019C99.5585 49.9717 99.5558 49.6313 99.6192 49.3001C99.7988 49.2977 99.9785 49.2947 100.158 49.2918C100.578 49.2849 100.997 49.2781 101.416 49.2781C101.633 49.2781 101.726 49.2152 101.716 48.9914C101.709 48.8412 101.711 48.6906 101.713 48.54C101.716 48.3702 101.718 48.2005 101.708 48.0316C101.659 47.2105 101.185 46.6992 100.398 46.7111C99.5413 46.7231 99.1599 46.9499 99.0281 47.8638C98.9846 48.6419 98.9846 49.4219 99.0281 50.2C99.1459 51.4185 99.8129 51.5764 100.825 51.4185C101.367 51.3336 101.771 50.7194 101.714 50.179C101.713 50.1301 101.694 50.0833 101.662 50.0467C101.629 50.0102 101.585 49.9863 101.536 49.9793C101.197 49.88 101.151 50.0963 101.109 50.2955C101.1 50.3407 101.091 50.3851 101.078 50.4247C100.926 50.9002 100.711 51.073 100.244 51.038ZM99.5769 47.9155C99.4411 48.7795 99.491 48.8394 100.353 48.8394C100.761 48.8394 100.966 48.8394 101.065 48.7371C101.166 48.6344 101.16 48.4284 101.148 48.0154C101.131 47.4441 100.901 47.1664 100.415 47.1295C99.9473 47.0945 99.6638 47.3602 99.5769 47.9155Z" fill="white"/>
<path fill-rule="evenodd" clip-rule="evenodd" d="M103.477 46.7916C102.946 46.9345 102.783 47.374 102.721 47.8654C102.677 48.6434 102.676 49.4234 102.717 50.2016C102.777 50.694 102.878 51.1505 103.408 51.3812C104.332 51.7827 105.293 51.2463 105.393 50.2645C105.41 50.0937 105.362 49.9848 105.182 49.9848C105.155 49.9851 105.126 49.9816 105.096 49.9781C104.979 49.9642 104.854 49.9495 104.834 50.1517C104.817 50.2456 104.792 50.3378 104.759 50.4273C104.625 50.9088 104.399 51.0776 103.931 51.0426C103.549 51.0146 103.354 50.7829 103.314 50.3075C103.25 49.9751 103.252 49.6332 103.32 49.3017C103.45 49.2989 103.58 49.295 103.71 49.2912C103.955 49.2839 104.2 49.2767 104.445 49.2767L104.452 49.2767C105.403 49.2737 105.413 49.2737 105.403 48.3248C105.398 47.9243 105.388 47.5158 105.109 47.1832C104.663 46.6498 104.076 46.6308 103.477 46.7916ZM103.266 47.9169C103.128 48.7808 103.181 48.8438 104.039 48.8438C104.45 48.8438 104.655 48.8438 104.755 48.7411C104.854 48.6385 104.848 48.4332 104.836 48.0228C104.82 47.4494 104.593 47.1728 104.107 47.1348C103.638 47.0978 103.355 47.3615 103.266 47.9169Z" fill="white"/>
<path fill-rule="evenodd" clip-rule="evenodd" d="M83.2982 46.7077C82.4595 46.7646 82.2249 46.9295 82.0302 47.6965C81.9849 48.6155 81.9849 49.5334 82.0302 50.4503C82.131 50.9687 82.3936 51.3392 82.9448 51.4391C83.8733 51.6079 84.3426 51.3392 84.6541 50.4493C84.6581 50.4147 84.6643 50.3799 84.6706 50.3451C84.6948 50.2111 84.719 50.0774 84.6072 49.9569C84.5702 49.9604 84.5326 49.9625 84.4952 49.9645C84.2629 49.9771 84.0425 49.9891 84.0511 50.3704C84.06 50.7829 83.8084 50.9986 83.3741 51.0386C82.9947 51.0735 82.7341 50.8718 82.6113 50.4942C82.5442 50.2909 82.5471 50.0864 82.55 49.8819C82.5517 49.7699 82.5533 49.658 82.5434 49.5463C82.5224 49.3186 82.6292 49.2687 82.8359 49.2687C83.4289 49.2797 84.0279 49.2797 84.6269 49.2797H84.6272C84.7119 48.8801 84.6917 48.4806 84.6716 48.0811C84.6666 47.9812 84.6615 47.8813 84.6581 47.7814C84.4485 47.0153 84.0361 46.6578 83.2982 46.7077ZM82.5787 47.7702C82.363 48.6422 82.5038 48.842 83.3285 48.842C84.2242 48.842 84.2471 48.821 84.1273 47.9141C84.1087 47.7905 84.0769 47.6693 84.0325 47.5525C84.002 47.4671 83.9522 47.3898 83.8869 47.3269C83.8216 47.264 83.7426 47.2171 83.656 47.1899C83.1428 47.0072 82.7105 47.2389 82.5787 47.7702Z" fill="white"/>
<path d="M72.6951 45.2718C72.5346 45.2767 72.3748 45.2488 72.2254 45.1898C72.0761 45.1308 71.9404 45.0419 71.8266 44.9286C71.7128 44.8152 71.6234 44.6798 71.5638 44.5307C71.5042 44.3815 71.4756 44.2218 71.4799 44.0612C71.4806 43.7451 71.6042 43.4416 71.8247 43.215C72.0452 42.9885 72.3452 42.8567 72.6611 42.8477C72.9915 42.8497 73.3079 42.9815 73.5421 43.2147C73.7763 43.4478 73.9095 43.7637 73.9132 44.0942C73.9026 44.4102 73.7696 44.7097 73.5423 44.9295C73.315 45.1492 73.0112 45.272 72.6951 45.2718Z" fill="white"/>
<path d="M81.5604 41.9149C81.5584 42.0001 81.5396 42.0842 81.5051 42.1622C81.4706 42.2402 81.4211 42.3106 81.3594 42.3694C81.2977 42.4283 81.225 42.4744 81.1455 42.5051C81.0659 42.5359 80.9812 42.5507 80.8959 42.5486C80.8107 42.5466 80.7267 42.5278 80.6487 42.4933C80.5708 42.4588 80.5004 42.4093 80.4415 42.3475C80.3827 42.2858 80.3366 42.2131 80.3059 42.1336C80.2751 42.054 80.2604 41.9692 80.2624 41.8839C80.2665 41.7117 80.3388 41.5482 80.4634 41.4294C80.588 41.3105 80.7548 41.2461 80.9269 41.2502C81.099 41.2543 81.2625 41.3266 81.3813 41.4513C81.5001 41.5759 81.5645 41.7427 81.5604 41.9149Z" fill="white"/>
</svg>
